<svg xmlns="http://www.w3.org/2000/svg" viewBox="0 0 120 200" width="120" height="200">
  <defs>
    <linearGradient id="bg" x1="0" y1="0" x2="0" y2="1">
      <stop offset="0%" stop-color="#F8EDD8"/>
      <stop offset="100%" stop-color="#E8D4A8"/>
    </linearGradient>
    <filter id="aged">
      <feTurbulence type="fractalNoise" baseFrequency="0.65" numOctaves="3" result="noise"/>
      <feColorMatrix type="saturate" values="0" in="noise" result="grey"/>
      <feBlend in="SourceGraphic" in2="grey" mode="multiply" result="blend"/>
    </filter>
  </defs>
  <!-- bg -->
  <rect width="120" height="200" rx="8" fill="url(#bg)"/>
  <!-- border double -->
  <rect x="4" y="4" width="112" height="192" rx="6" fill="none" stroke="#C8A030" stroke-width="1.5"/>
  <rect x="7" y="7" width="106" height="186" rx="4" fill="none" stroke="#C8A030" stroke-width="0.6" opacity="0.6"/>
  <text x="60" y="28" text-anchor="middle" font-family="serif" font-size="9" font-weight="bold" fill="#C8A030" style="">V</text>
  <text x="10" y="25" text-anchor="start" font-family="serif" font-size="8" font-weight="normal" fill="#C8A030" style="">✦</text>
  <text x="110" y="25" text-anchor="end" font-family="serif" font-size="8" font-weight="normal" fill="#C8A030" style="">✦</text>
  <rect x="10" y="60" width="20" height="120" rx="0" fill="#888888" stroke="#2A1A08" stroke-width="0.8"/>
  <rect x="90" y="60" width="20" height="120" rx="0" fill="#888888" stroke="#2A1A08" stroke-width="0.8"/>
  <rect x="30" y="85" width="60" height="90" rx="4" fill="#AAA090" stroke="#2A1A08" stroke-width="0.8"/>
  <path d="M60,140 L60,105 M52,113 L68,113" fill="none" stroke="#8B1A1A" stroke-width="1.5"/>
  <circle cx="60" cy="102" r="7" fill="#FFD0A0" stroke="#2A1A08" stroke-width="0.8"/>
  <rect x="53" y="90" width="14" height="5" rx="0" fill="#C8A030" stroke="#2A1A08" stroke-width="0.5"/>
  <rect x="51" y="85" width="18" height="5" rx="0" fill="#C8A030" stroke="#2A1A08" stroke-width="0.5"/>
  <rect x="55" y="80" width="10" height="5" rx="0" fill="#C8A030" stroke="#2A1A08" stroke-width="0.5"/>
  <line x1="60" y1="110" x2="60" y2="150" stroke="#C8A030" stroke-width="2"/>
  <line x1="52" y1="118" x2="68" y2="118" stroke="#C8A030" stroke-width="1.5"/>
  <line x1="54" y1="126" x2="66" y2="126" stroke="#C8A030" stroke-width="1.5"/>
  <line x1="56" y1="134" x2="64" y2="134" stroke="#C8A030" stroke-width="1.5"/>
  <circle cx="40" cy="158" r="6" fill="#E0C080" stroke="#2A1A08" stroke-width="0.7"/>
  <path d="M40,164 L40,180" fill="none" stroke="#8B1A1A" stroke-width="2"/>
  <circle cx="80" cy="158" r="6" fill="#E0C080" stroke="#2A1A08" stroke-width="0.7"/>
  <path d="M80,164 L80,180" fill="none" stroke="#FEFAF0" stroke-width="2"/>
  <path d="M50,170 L70,182 M70,170 L50,182" fill="none" stroke="#C8A030" stroke-width="1.5"/>
  <text x="60" y="186" text-anchor="middle" font-family="serif" font-size="6.5" font-weight="normal" fill="#2A1A08" style="">THE HIEROPHANT</text>

</svg>