<svg xmlns="http://www.w3.org/2000/svg" viewBox="0 0 120 200" width="120" height="200">
  <defs>
    <linearGradient id="bg" x1="0" y1="0" x2="0" y2="1">
      <stop offset="0%" stop-color="#F8EDD8"/>
      <stop offset="100%" stop-color="#E8D4A8"/>
    </linearGradient>
    <filter id="aged">
      <feTurbulence type="fractalNoise" baseFrequency="0.65" numOctaves="3" result="noise"/>
      <feColorMatrix type="saturate" values="0" in="noise" result="grey"/>
      <feBlend in="SourceGraphic" in2="grey" mode="multiply" result="blend"/>
    </filter>
  </defs>
  <!-- bg -->
  <rect width="120" height="200" rx="8" fill="url(#bg)"/>
  <!-- border double -->
  <rect x="4" y="4" width="112" height="192" rx="6" fill="none" stroke="#C8A030" stroke-width="1.5"/>
  <rect x="7" y="7" width="106" height="186" rx="4" fill="none" stroke="#C8A030" stroke-width="0.6" opacity="0.6"/>
  <text x="60" y="28" text-anchor="middle" font-family="serif" font-size="9" font-weight="bold" fill="#C8A030" style="">X</text>
  <text x="10" y="25" text-anchor="start" font-family="serif" font-size="8" font-weight="normal" fill="#C8A030" style="">✦</text>
  <text x="110" y="25" text-anchor="end" font-family="serif" font-size="8" font-weight="normal" fill="#C8A030" style="">✦</text>
  <circle cx="60" cy="92" r="50" fill="#E8D890" stroke="#C8A030" stroke-width="2"/>
  <circle cx="60" cy="92" r="35" fill="none" stroke="#C8A030" stroke-width="1"/>
  <circle cx="60" cy="92" r="20" fill="#C8A030" stroke="#2A1A08" stroke-width="1"/>
  <line x1="60" y1="92" x2="108" y2="92" stroke="#C8A030" stroke-width="1"/>
  <line x1="60" y1="92" x2="93" y2="125" stroke="#C8A030" stroke-width="1"/>
  <line x1="60" y1="92" x2="60" y2="140" stroke="#C8A030" stroke-width="1"/>
  <line x1="60" y1="92" x2="26" y2="125" stroke="#C8A030" stroke-width="1"/>
  <line x1="60" y1="92" x2="12" y2="92" stroke="#C8A030" stroke-width="1"/>
  <line x1="60" y1="92" x2="26" y2="58" stroke="#C8A030" stroke-width="1"/>
  <line x1="60" y1="92" x2="59" y2="44" stroke="#C8A030" stroke-width="1"/>
  <line x1="60" y1="92" x2="93" y2="58" stroke="#C8A030" stroke-width="1"/>
  <text x="45" y="78" text-anchor="middle" font-family="serif" font-size="9" font-weight="normal" fill="#2A1A08" style="">T</text>
  <text x="55" y="68" text-anchor="middle" font-family="serif" font-size="9" font-weight="normal" fill="#2A1A08" style="">A</text>
  <text x="68" y="78" text-anchor="middle" font-family="serif" font-size="9" font-weight="normal" fill="#2A1A08" style="">R</text>
  <text x="72" y="92" text-anchor="middle" font-family="serif" font-size="9" font-weight="normal" fill="#2A1A08" style="">O</text>
  <text x="38" y="92" text-anchor="middle" font-family="serif" font-size="6" font-weight="normal" fill="#8B1A1A" style="">Hg</text>
  <text x="75" y="105" text-anchor="middle" font-family="serif" font-size="6" font-weight="normal" fill="#2A1A08" style="">S</text>
  <path d="M100,55 Q108,70 104,90 Q100,108 105,125" fill="none" stroke="#1A3A6A" stroke-width="2"/>
  <circle cx="105" cy="127" r="3" fill="#1A3A6A" stroke="#C8A030" stroke-width="1"/>
  <circle cx="18" cy="80" r="5" fill="#2A1A08" stroke="#C8A030" stroke-width="1"/>
  <path d="M18,85 L18,110" fill="none" stroke="#2A1A08" stroke-width="2"/>
  <path d="M48,45 Q60,35 72,45 Q72,55 60,55 Q48,55 48,45 Z" fill="#C8A030" stroke="#2A1A08" stroke-width="0.8"/>
  <path d="M5,15 Q15,12 18,22 Q12,25 5,15" fill="#E0C080" stroke="#2A1A08" stroke-width="0.5"/>
  <circle cx="110" cy="20" r="8" fill="#8B1A1A" stroke="#2A1A08" stroke-width="0.5"/>
  <path d="M5,162 Q10,150 20,162 Q15,168 5,162" fill="#C8A030" stroke="#2A1A08" stroke-width="0.5"/>
  <circle cx="108" cy="165" r="8" fill="#2A1A08" stroke="#2A1A08" stroke-width="0.5"/>
  <text x="60" y="186" text-anchor="middle" font-family="serif" font-size="6.5" font-weight="normal" fill="#2A1A08" style="">WHEEL OF FORTUNE</text>

</svg>