<svg xmlns="http://www.w3.org/2000/svg" viewBox="0 0 120 200" width="120" height="200">
  <defs>
    <linearGradient id="bg" x1="0" y1="0" x2="0" y2="1">
      <stop offset="0%" stop-color="#F8EDD8"/>
      <stop offset="100%" stop-color="#E8D4A8"/>
    </linearGradient>
    <filter id="aged">
      <feTurbulence type="fractalNoise" baseFrequency="0.65" numOctaves="3" result="noise"/>
      <feColorMatrix type="saturate" values="0" in="noise" result="grey"/>
      <feBlend in="SourceGraphic" in2="grey" mode="multiply" result="blend"/>
    </filter>
  </defs>
  <!-- bg -->
  <rect width="120" height="200" rx="8" fill="url(#bg)"/>
  <!-- border double -->
  <rect x="4" y="4" width="112" height="192" rx="6" fill="none" stroke="#C8A030" stroke-width="1.5"/>
  <rect x="7" y="7" width="106" height="186" rx="4" fill="none" stroke="#C8A030" stroke-width="0.6" opacity="0.6"/>
  <text x="60" y="28" text-anchor="middle" font-family="serif" font-size="9" font-weight="bold" fill="#C8A030" style="">XIX</text>
  <text x="10" y="25" text-anchor="start" font-family="serif" font-size="8" font-weight="normal" fill="#C8A030" style="">✦</text>
  <text x="110" y="25" text-anchor="end" font-family="serif" font-size="8" font-weight="normal" fill="#C8A030" style="">✦</text>
  <rect x="0" y="15" width="120" height="185" rx="0" fill="#FFF0C0" stroke="none" stroke-width="1"/>
  <circle cx="60" cy="50" r="30" fill="#C8A030" stroke="#E08000" stroke-width="2"/>
<line x1="88.0" y1="50.0" x2="98.0" y2="50.0" stroke="#C8A030" stroke-width="2"/><line x1="85.9" y1="60.7" x2="95.1" y2="64.5" stroke="#C8A030" stroke-width="2"/><line x1="79.8" y1="69.8" x2="86.9" y2="76.9" stroke="#C8A030" stroke-width="2"/><line x1="70.7" y1="75.9" x2="74.5" y2="85.1" stroke="#C8A030" stroke-width="2"/><line x1="60.0" y1="78.0" x2="60.0" y2="88.0" stroke="#C8A030" stroke-width="2"/><line x1="49.3" y1="75.9" x2="45.5" y2="85.1" stroke="#C8A030" stroke-width="2"/><line x1="40.2" y1="69.8" x2="33.1" y2="76.9" stroke="#C8A030" stroke-width="2"/><line x1="34.1" y1="60.7" x2="24.9" y2="64.5" stroke="#C8A030" stroke-width="2"/><line x1="32.0" y1="50.0" x2="22.0" y2="50.0" stroke="#C8A030" stroke-width="2"/><line x1="34.1" y1="39.3" x2="24.9" y2="35.5" stroke="#C8A030" stroke-width="2"/><line x1="40.2" y1="30.2" x2="33.1" y2="23.1" stroke="#C8A030" stroke-width="2"/><line x1="49.3" y1="24.1" x2="45.5" y2="14.9" stroke="#C8A030" stroke-width="2"/><line x1="60.0" y1="22.0" x2="60.0" y2="12.0" stroke="#C8A030" stroke-width="2"/><line x1="70.7" y1="24.1" x2="74.5" y2="14.9" stroke="#C8A030" stroke-width="2"/><line x1="79.8" y1="30.2" x2="86.9" y2="23.1" stroke="#C8A030" stroke-width="2"/><line x1="85.9" y1="39.3" x2="95.1" y2="35.5" stroke="#C8A030" stroke-width="2"/>  <circle cx="54" cy="46" r="3" fill="#E08000" stroke="#C8A030" stroke-width="1"/>
  <circle cx="66" cy="46" r="3" fill="#E08000" stroke="#C8A030" stroke-width="1"/>
  <path d="M54,56 Q60,62 66,56" fill="none" stroke="#E08000" stroke-width="1.5"/>
  <path d="M0,145 L120,145 L120,185 L0,185 Z" fill="#C09050" stroke="#2A1A08" stroke-width="0.8"/>
<line x1="0" y1="148" x2="120" y2="148" stroke="#2A1A08" stroke-width="0.5"/><line x1="0" y1="154" x2="120" y2="154" stroke="#2A1A08" stroke-width="0.5"/><line x1="0" y1="160" x2="120" y2="160" stroke="#2A1A08" stroke-width="0.5"/><line x1="0" y1="166" x2="120" y2="166" stroke="#2A1A08" stroke-width="0.5"/><line x1="0" y1="172" x2="120" y2="172" stroke="#2A1A08" stroke-width="0.5"/><line x1="0" y1="145" x2="0" y2="185" stroke="#2A1A08" stroke-width="0.5"/><line x1="15" y1="145" x2="15" y2="185" stroke="#2A1A08" stroke-width="0.5"/><line x1="30" y1="145" x2="30" y2="185" stroke="#2A1A08" stroke-width="0.5"/><line x1="45" y1="145" x2="45" y2="185" stroke="#2A1A08" stroke-width="0.5"/><line x1="60" y1="145" x2="60" y2="185" stroke="#2A1A08" stroke-width="0.5"/><line x1="75" y1="145" x2="75" y2="185" stroke="#2A1A08" stroke-width="0.5"/><line x1="90" y1="145" x2="90" y2="185" stroke="#2A1A08" stroke-width="0.5"/><line x1="105" y1="145" x2="105" y2="185" stroke="#2A1A08" stroke-width="0.5"/>  <circle cx="15" cy="135" r="6" fill="#C8A030" stroke="#E08000" stroke-width="1"/>
  <line x1="15" y1="141" x2="15" y2="155" stroke="#1A5A1A" stroke-width="1.5"/>
  <circle cx="35" cy="135" r="6" fill="#C8A030" stroke="#E08000" stroke-width="1"/>
  <line x1="35" y1="141" x2="35" y2="155" stroke="#1A5A1A" stroke-width="1.5"/>
  <circle cx="55" cy="135" r="6" fill="#C8A030" stroke="#E08000" stroke-width="1"/>
  <line x1="55" y1="141" x2="55" y2="155" stroke="#1A5A1A" stroke-width="1.5"/>
  <circle cx="75" cy="135" r="6" fill="#C8A030" stroke="#E08000" stroke-width="1"/>
  <line x1="75" y1="141" x2="75" y2="155" stroke="#1A5A1A" stroke-width="1.5"/>
  <circle cx="95" cy="135" r="6" fill="#C8A030" stroke="#E08000" stroke-width="1"/>
  <line x1="95" y1="141" x2="95" y2="155" stroke="#1A5A1A" stroke-width="1.5"/>
  <path d="M40,155 Q60,135 85,148 Q90,158 80,168 Q65,175 50,170 Q38,165 40,155 Z" fill="#FEFAF0" stroke="#2A1A08" stroke-width="0.8"/>
  <circle cx="65" cy="130" r="7" fill="#FFD0A0" stroke="#2A1A08" stroke-width="0.8"/>
  <path d="M65,137 L65,155 M58,144 L72,144" fill="none" stroke="#8B1A1A" stroke-width="1.5"/>
  <line x1="58" y1="144" x2="45" y2="125" stroke="#8B1A1A" stroke-width="1.5"/>
  <path d="M45,125 L35,118 L44,132 Z" fill="#8B1A1A" stroke="#2A1A08" stroke-width="1"/>
  <text x="60" y="186" text-anchor="middle" font-family="serif" font-size="6.5" font-weight="normal" fill="#2A1A08" style="">THE SUN</text>

</svg>