<svg xmlns="http://www.w3.org/2000/svg" viewBox="0 0 120 200" width="120" height="200">
  <defs>
    <linearGradient id="bg" x1="0" y1="0" x2="0" y2="1">
      <stop offset="0%" stop-color="#F8EDD8"/>
      <stop offset="100%" stop-color="#E8D4A8"/>
    </linearGradient>
    <filter id="aged">
      <feTurbulence type="fractalNoise" baseFrequency="0.65" numOctaves="3" result="noise"/>
      <feColorMatrix type="saturate" values="0" in="noise" result="grey"/>
      <feBlend in="SourceGraphic" in2="grey" mode="multiply" result="blend"/>
    </filter>
  </defs>
  <!-- bg -->
  <rect width="120" height="200" rx="8" fill="url(#bg)"/>
  <!-- border double -->
  <rect x="4" y="4" width="112" height="192" rx="6" fill="none" stroke="#C8A030" stroke-width="1.5"/>
  <rect x="7" y="7" width="106" height="186" rx="4" fill="none" stroke="#C8A030" stroke-width="0.6" opacity="0.6"/>
  <text x="60" y="28" text-anchor="middle" font-family="serif" font-size="9" font-weight="bold" fill="#C8A030" style="">0</text>
  <text x="10" y="25" text-anchor="start" font-family="serif" font-size="8" font-weight="normal" fill="#C8A030" style="">✦</text>
  <text x="110" y="25" text-anchor="end" font-family="serif" font-size="8" font-weight="normal" fill="#C8A030" style="">✦</text>
  <path d="M10,140 Q30,100 50,110 Q70,120 110,90" fill="#90C0A0" stroke="#1A5A1A" stroke-width="0.8"/>
  <rect x="0" y="140" width="120" height="60" rx="0" fill="#C8A860" stroke="none" stroke-width="1"/>
  <circle cx="100" cy="25" r="12" fill="#FFD700" stroke="#C8A030" stroke-width="1"/>
  <path d="M60,140 L80,90 L100,140 Z" fill="#FEFAF0" stroke="#888888" stroke-width="0.8"/>
  <path d="M50,125 L50,105 M46,110 L54,110 M50,105 L46,120 M50,105 L54,120" fill="none" stroke="#8B1A1A" stroke-width="1.5"/>
  <circle cx="50" cy="102" r="5" fill="#FFD0A0" stroke="#2A1A08" stroke-width="0.8"/>
  <path d="M60,125 L65,118 L62,115 L68,115 L65,118" fill="#FEFAF0" stroke="#2A1A08" stroke-width="0.7"/>
  <circle cx="40" cy="120" r="3" fill="#FF80A0" stroke="#2A1A08" stroke-width="0.5"/>
  <text x="60" y="186" text-anchor="middle" font-family="serif" font-size="6.5" font-weight="normal" fill="#2A1A08" style="">THE FOOL</text>

</svg>