<svg xmlns="http://www.w3.org/2000/svg" viewBox="0 0 120 200" width="120" height="200">
  <defs>
    <linearGradient id="bg" x1="0" y1="0" x2="0" y2="1">
      <stop offset="0%" stop-color="#F8EDD8"/>
      <stop offset="100%" stop-color="#E8D4A8"/>
    </linearGradient>
    <filter id="aged">
      <feTurbulence type="fractalNoise" baseFrequency="0.65" numOctaves="3" result="noise"/>
      <feColorMatrix type="saturate" values="0" in="noise" result="grey"/>
      <feBlend in="SourceGraphic" in2="grey" mode="multiply" result="blend"/>
    </filter>
  </defs>
  <!-- bg -->
  <rect width="120" height="200" rx="8" fill="url(#bg)"/>
  <!-- border double -->
  <rect x="4" y="4" width="112" height="192" rx="6" fill="none" stroke="#C8A030" stroke-width="1.5"/>
  <rect x="7" y="7" width="106" height="186" rx="4" fill="none" stroke="#C8A030" stroke-width="0.6" opacity="0.6"/>
  <text x="60" y="28" text-anchor="middle" font-family="serif" font-size="9" font-weight="bold" fill="#C8A030" style="">III</text>
  <text x="10" y="25" text-anchor="start" font-family="serif" font-size="8" font-weight="normal" fill="#C8A030" style="">✦</text>
  <text x="110" y="25" text-anchor="end" font-family="serif" font-size="8" font-weight="normal" fill="#C8A030" style="">✦</text>
  <rect x="15" y="90" width="90" height="80" rx="4" fill="#8B6000" stroke="#2A1A08" stroke-width="0.8"/>
  <path d="M10,155 Q20,140 30,155 Q20,145 10,155" fill="#1A5A1A" stroke="none" stroke-width="1"/>
  <path d="M85,155 Q95,140 105,155 Q95,145 85,155" fill="#1A5A1A" stroke="none" stroke-width="1"/>
  <path d="M5,100 Q8,120 5,150" fill="none" stroke="#1A3A6A" stroke-width="1.5"/>
  <path d="M60,140 L60,110 M52,118 L68,118 M60,110 L56,135 M60,110 L64,135" fill="none" stroke="#1A5A1A" stroke-width="1.5"/>
  <circle cx="60" cy="107" r="7" fill="#FFD0A0" stroke="#2A1A08" stroke-width="0.8"/>
<circle cx="44" cy="98" r="2" fill="#C8A030"/><circle cx="52" cy="98" r="2" fill="#C8A030"/><circle cx="60" cy="98" r="2" fill="#C8A030"/><circle cx="68" cy="98" r="2" fill="#C8A030"/><circle cx="76" cy="98" r="2" fill="#C8A030"/>  <line x1="68" y1="118" x2="78" y2="98" stroke="#C8A030" stroke-width="2"/>
  <circle cx="78" cy="96" r="3" fill="#C8A030" stroke="#C8A030" stroke-width="1"/>
  <circle cx="45" cy="125" r="8" fill="none" stroke="#C8A030" stroke-width="1"/>
  <line x1="45" y1="133" x2="45" y2="140" stroke="#C8A030" stroke-width="1"/>
  <line x1="40" y1="138" x2="50" y2="138" stroke="#C8A030" stroke-width="1"/>
  <text x="60" y="186" text-anchor="middle" font-family="serif" font-size="6.5" font-weight="normal" fill="#2A1A08" style="">THE EMPRESS</text>

</svg>