<svg xmlns="http://www.w3.org/2000/svg" viewBox="0 0 120 200" width="120" height="200">
  <defs>
    <linearGradient id="bg" x1="0" y1="0" x2="0" y2="1">
      <stop offset="0%" stop-color="#F8EDD8"/>
      <stop offset="100%" stop-color="#E8D4A8"/>
    </linearGradient>
    <filter id="aged">
      <feTurbulence type="fractalNoise" baseFrequency="0.65" numOctaves="3" result="noise"/>
      <feColorMatrix type="saturate" values="0" in="noise" result="grey"/>
      <feBlend in="SourceGraphic" in2="grey" mode="multiply" result="blend"/>
    </filter>
  </defs>
  <!-- bg -->
  <rect width="120" height="200" rx="8" fill="url(#bg)"/>
  <!-- border double -->
  <rect x="4" y="4" width="112" height="192" rx="6" fill="none" stroke="#C8A030" stroke-width="1.5"/>
  <rect x="7" y="7" width="106" height="186" rx="4" fill="none" stroke="#C8A030" stroke-width="0.6" opacity="0.6"/>
  <text x="60" y="28" text-anchor="middle" font-family="serif" font-size="9" font-weight="bold" fill="#C8A030" style="">VII</text>
  <text x="10" y="25" text-anchor="start" font-family="serif" font-size="8" font-weight="normal" fill="#C8A030" style="">✦</text>
  <text x="110" y="25" text-anchor="end" font-family="serif" font-size="8" font-weight="normal" fill="#C8A030" style="">✦</text>
  <rect x="20" y="85" width="80" height="70" rx="3" fill="#F0D890" stroke="#2A1A08" stroke-width="1"/>
  <rect x="20" y="60" width="80" height="30" rx="0" fill="#1A3A6A" stroke="#2A1A08" stroke-width="1"/>
<circle cx="30" cy="75" r="2" fill="#C8A030"/><circle cx="45" cy="75" r="2" fill="#C8A030"/><circle cx="60" cy="75" r="2" fill="#C8A030"/><circle cx="75" cy="75" r="2" fill="#C8A030"/><circle cx="90" cy="75" r="2" fill="#C8A030"/><circle cx="105" cy="75" r="2" fill="#C8A030"/>  <path d="M60,130 L60,100 M52,108 L68,108" fill="none" stroke="#C8A030" stroke-width="1.5"/>
  <circle cx="60" cy="97" r="7" fill="#FFD0A0" stroke="#2A1A08" stroke-width="0.8"/>
  <path d="M52,104 Q48,100 52,96" fill="none" stroke="#C8A030" stroke-width="2"/>
  <path d="M68,104 Q72,100 68,96" fill="none" stroke="#C8A030" stroke-width="2"/>
  <line x1="66" y1="108" x2="74" y2="90" stroke="#888888" stroke-width="2"/>
  <circle cx="74" cy="88" r="2" fill="#C8A030" stroke="#C8A030" stroke-width="1"/>
  <path d="M25,155 Q30,130 40,135 L45,155 Z" fill="#2A1A08" stroke="#2A1A08" stroke-width="0.5"/>
  <circle cx="30" cy="133" r="6" fill="#2A1A08" stroke="#2A1A08" stroke-width="1"/>
  <path d="M75,155 Q80,130 90,135 L95,155 Z" fill="#FEFAF0" stroke="#2A1A08" stroke-width="0.5"/>
  <circle cx="82" cy="133" r="6" fill="#FEFAF0" stroke="#2A1A08" stroke-width="1"/>
  <path d="M5,130 L5,155 L20,155 L20,120 L30,120 L30,115 L35,115 L35,120 L45,120 L45,155 L110,155 L110,130 Z" fill="#FEFAF0" stroke="#2A1A08" stroke-width="0.5"/>
  <text x="60" y="186" text-anchor="middle" font-family="serif" font-size="6.5" font-weight="normal" fill="#2A1A08" style="">THE CHARIOT</text>

</svg>