<svg xmlns="http://www.w3.org/2000/svg" viewBox="0 0 120 200" width="120" height="200">
  <defs>
    <linearGradient id="bg" x1="0" y1="0" x2="0" y2="1">
      <stop offset="0%" stop-color="#F8EDD8"/>
      <stop offset="100%" stop-color="#E8D4A8"/>
    </linearGradient>
    <filter id="aged">
      <feTurbulence type="fractalNoise" baseFrequency="0.65" numOctaves="3" result="noise"/>
      <feColorMatrix type="saturate" values="0" in="noise" result="grey"/>
      <feBlend in="SourceGraphic" in2="grey" mode="multiply" result="blend"/>
    </filter>
  </defs>
  <!-- bg -->
  <rect width="120" height="200" rx="8" fill="url(#bg)"/>
  <!-- border double -->
  <rect x="4" y="4" width="112" height="192" rx="6" fill="none" stroke="#C8A030" stroke-width="1.5"/>
  <rect x="7" y="7" width="106" height="186" rx="4" fill="none" stroke="#C8A030" stroke-width="0.6" opacity="0.6"/>
  <text x="60" y="28" text-anchor="middle" font-family="serif" font-size="9" font-weight="bold" fill="#1A3A6A" style="">X</text>
  <text x="10" y="25" text-anchor="start" font-family="serif" font-size="8" font-weight="normal" fill="#1A3A6A" style="">🜄</text>
  <text x="110" y="25" text-anchor="end" font-family="serif" font-size="8" font-weight="normal" fill="#1A3A6A" style="">🜄</text>
  <path d="M28,23 Q28,30 35,37 Q42,30 42,23 Z" fill="#1A3A6A" stroke="#2A1A08" stroke-width="0.6"/>
  <line x1="30.8" y1="37" x2="39.2" y2="37" stroke="#2A1A08" stroke-width="0.8"/>
  <line x1="35" y1="37" x2="35" y2="40" stroke="#2A1A08" stroke-width="0.8"/>
  <line x1="29.4" y1="40" x2="40.6" y2="40" stroke="#2A1A08" stroke-width="0.8"/>
  <path d="M53,23 Q53,30 60,37 Q67,30 67,23 Z" fill="#1A3A6A" stroke="#2A1A08" stroke-width="0.6"/>
  <line x1="55.8" y1="37" x2="64.2" y2="37" stroke="#2A1A08" stroke-width="0.8"/>
  <line x1="60" y1="37" x2="60" y2="40" stroke="#2A1A08" stroke-width="0.8"/>
  <line x1="54.4" y1="40" x2="65.6" y2="40" stroke="#2A1A08" stroke-width="0.8"/>
  <path d="M78,23 Q78,30 85,37 Q92,30 92,23 Z" fill="#1A3A6A" stroke="#2A1A08" stroke-width="0.6"/>
  <line x1="80.8" y1="37" x2="89.2" y2="37" stroke="#2A1A08" stroke-width="0.8"/>
  <line x1="85" y1="37" x2="85" y2="40" stroke="#2A1A08" stroke-width="0.8"/>
  <line x1="79.4" y1="40" x2="90.6" y2="40" stroke="#2A1A08" stroke-width="0.8"/>
  <path d="M28,58 Q28,65 35,72 Q42,65 42,58 Z" fill="#1A3A6A" stroke="#2A1A08" stroke-width="0.6"/>
  <line x1="30.8" y1="72" x2="39.2" y2="72" stroke="#2A1A08" stroke-width="0.8"/>
  <line x1="35" y1="72" x2="35" y2="75" stroke="#2A1A08" stroke-width="0.8"/>
  <line x1="29.4" y1="75" x2="40.6" y2="75" stroke="#2A1A08" stroke-width="0.8"/>
  <path d="M78,58 Q78,65 85,72 Q92,65 92,58 Z" fill="#1A3A6A" stroke="#2A1A08" stroke-width="0.6"/>
  <line x1="80.8" y1="72" x2="89.2" y2="72" stroke="#2A1A08" stroke-width="0.8"/>
  <line x1="85" y1="72" x2="85" y2="75" stroke="#2A1A08" stroke-width="0.8"/>
  <line x1="79.4" y1="75" x2="90.6" y2="75" stroke="#2A1A08" stroke-width="0.8"/>
  <path d="M53,85 Q53,92 60,99 Q67,92 67,85 Z" fill="#1A3A6A" stroke="#2A1A08" stroke-width="0.6"/>
  <line x1="55.8" y1="99" x2="64.2" y2="99" stroke="#2A1A08" stroke-width="0.8"/>
  <line x1="60" y1="99" x2="60" y2="102" stroke="#2A1A08" stroke-width="0.8"/>
  <line x1="54.4" y1="102" x2="65.6" y2="102" stroke="#2A1A08" stroke-width="0.8"/>
  <path d="M28,111 Q28,118 35,125 Q42,118 42,111 Z" fill="#1A3A6A" stroke="#2A1A08" stroke-width="0.6"/>
  <line x1="30.8" y1="125" x2="39.2" y2="125" stroke="#2A1A08" stroke-width="0.8"/>
  <line x1="35" y1="125" x2="35" y2="128" stroke="#2A1A08" stroke-width="0.8"/>
  <line x1="29.4" y1="128" x2="40.6" y2="128" stroke="#2A1A08" stroke-width="0.8"/>
  <path d="M78,111 Q78,118 85,125 Q92,118 92,111 Z" fill="#1A3A6A" stroke="#2A1A08" stroke-width="0.6"/>
  <line x1="80.8" y1="125" x2="89.2" y2="125" stroke="#2A1A08" stroke-width="0.8"/>
  <line x1="85" y1="125" x2="85" y2="128" stroke="#2A1A08" stroke-width="0.8"/>
  <line x1="79.4" y1="128" x2="90.6" y2="128" stroke="#2A1A08" stroke-width="0.8"/>
  <path d="M28,145 Q28,152 35,159 Q42,152 42,145 Z" fill="#1A3A6A" stroke="#2A1A08" stroke-width="0.6"/>
  <line x1="30.8" y1="159" x2="39.2" y2="159" stroke="#2A1A08" stroke-width="0.8"/>
  <line x1="35" y1="159" x2="35" y2="162" stroke="#2A1A08" stroke-width="0.8"/>
  <line x1="29.4" y1="162" x2="40.6" y2="162" stroke="#2A1A08" stroke-width="0.8"/>
  <path d="M78,145 Q78,152 85,159 Q92,152 92,145 Z" fill="#1A3A6A" stroke="#2A1A08" stroke-width="0.6"/>
  <line x1="80.8" y1="159" x2="89.2" y2="159" stroke="#2A1A08" stroke-width="0.8"/>
  <line x1="85" y1="159" x2="85" y2="162" stroke="#2A1A08" stroke-width="0.8"/>
  <line x1="79.4" y1="162" x2="90.6" y2="162" stroke="#2A1A08" stroke-width="0.8"/>
  <text x="60" y="186" text-anchor="middle" font-family="serif" font-size="6.5" font-weight="normal" fill="#2A1A08" style="">TEN OF CUPS</text>

</svg>