<svg xmlns="http://www.w3.org/2000/svg" viewBox="0 0 120 200" width="120" height="200">
  <defs>
    <linearGradient id="bg" x1="0" y1="0" x2="0" y2="1">
      <stop offset="0%" stop-color="#F8EDD8"/>
      <stop offset="100%" stop-color="#E8D4A8"/>
    </linearGradient>
    <filter id="aged">
      <feTurbulence type="fractalNoise" baseFrequency="0.65" numOctaves="3" result="noise"/>
      <feColorMatrix type="saturate" values="0" in="noise" result="grey"/>
      <feBlend in="SourceGraphic" in2="grey" mode="multiply" result="blend"/>
    </filter>
  </defs>
  <!-- bg -->
  <rect width="120" height="200" rx="8" fill="url(#bg)"/>
  <!-- border double -->
  <rect x="4" y="4" width="112" height="192" rx="6" fill="none" stroke="#C8A030" stroke-width="1.5"/>
  <rect x="7" y="7" width="106" height="186" rx="4" fill="none" stroke="#C8A030" stroke-width="0.6" opacity="0.6"/>
  <text x="60" y="28" text-anchor="middle" font-family="serif" font-size="9" font-weight="bold" fill="#C8A030" style="">V</text>
  <text x="10" y="25" text-anchor="start" font-family="serif" font-size="8" font-weight="normal" fill="#C8A030" style="">⭐</text>
  <text x="110" y="25" text-anchor="end" font-family="serif" font-size="8" font-weight="normal" fill="#C8A030" style="">⭐</text>
  <circle cx="35" cy="45" r="8" fill="none" stroke="#C8A030" stroke-width="0.8"/>
  <path d="M35.0,39.0 L31.5,49.9 L40.7,43.1 L29.3,43.1 L38.5,49.9 L35.0,39.0" fill="#C8A030" stroke="#2A1A08" stroke-width="0.5" opacity="0.85"/>
  <circle cx="85" cy="45" r="8" fill="none" stroke="#C8A030" stroke-width="0.8"/>
  <path d="M85.0,39.0 L81.5,49.9 L90.7,43.1 L79.3,43.1 L88.5,49.9 L85.0,39.0" fill="#C8A030" stroke="#2A1A08" stroke-width="0.5" opacity="0.85"/>
  <circle cx="60" cy="92" r="8" fill="none" stroke="#C8A030" stroke-width="0.8"/>
  <path d="M60.0,86.0 L56.5,96.9 L65.7,90.1 L54.3,90.1 L63.5,96.9 L60.0,86.0" fill="#C8A030" stroke="#2A1A08" stroke-width="0.5" opacity="0.85"/>
  <circle cx="35" cy="140" r="8" fill="none" stroke="#C8A030" stroke-width="0.8"/>
  <path d="M35.0,134.0 L31.5,144.9 L40.7,138.1 L29.3,138.1 L38.5,144.9 L35.0,134.0" fill="#C8A030" stroke="#2A1A08" stroke-width="0.5" opacity="0.85"/>
  <circle cx="85" cy="140" r="8" fill="none" stroke="#C8A030" stroke-width="0.8"/>
  <path d="M85.0,134.0 L81.5,144.9 L90.7,138.1 L79.3,138.1 L88.5,144.9 L85.0,134.0" fill="#C8A030" stroke="#2A1A08" stroke-width="0.5" opacity="0.85"/>
  <text x="60" y="186" text-anchor="middle" font-family="serif" font-size="6.5" font-weight="normal" fill="#2A1A08" style="">FIVE OF PENTACLES</text>

</svg>