<svg xmlns="http://www.w3.org/2000/svg" viewBox="0 0 120 200" width="120" height="200">
  <defs>
    <linearGradient id="bg" x1="0" y1="0" x2="0" y2="1">
      <stop offset="0%" stop-color="#F8EDD8"/>
      <stop offset="100%" stop-color="#E8D4A8"/>
    </linearGradient>
    <filter id="aged">
      <feTurbulence type="fractalNoise" baseFrequency="0.65" numOctaves="3" result="noise"/>
      <feColorMatrix type="saturate" values="0" in="noise" result="grey"/>
      <feBlend in="SourceGraphic" in2="grey" mode="multiply" result="blend"/>
    </filter>
  </defs>
  <!-- bg -->
  <rect width="120" height="200" rx="8" fill="url(#bg)"/>
  <!-- border double -->
  <rect x="4" y="4" width="112" height="192" rx="6" fill="none" stroke="#C8A030" stroke-width="1.5"/>
  <rect x="7" y="7" width="106" height="186" rx="4" fill="none" stroke="#C8A030" stroke-width="0.6" opacity="0.6"/>
  <text x="60" y="28" text-anchor="middle" font-family="serif" font-size="9" font-weight="bold" fill="#1A3A6A" style="">IX</text>
  <text x="10" y="25" text-anchor="start" font-family="serif" font-size="8" font-weight="normal" fill="#1A3A6A" style="">🜄</text>
  <text x="110" y="25" text-anchor="end" font-family="serif" font-size="8" font-weight="normal" fill="#1A3A6A" style="">🜄</text>
  <path d="M28,25 Q28,32 35,39 Q42,32 42,25 Z" fill="#1A3A6A" stroke="#2A1A08" stroke-width="0.6"/>
  <line x1="30.8" y1="39" x2="39.2" y2="39" stroke="#2A1A08" stroke-width="0.8"/>
  <line x1="35" y1="39" x2="35" y2="42" stroke="#2A1A08" stroke-width="0.8"/>
  <line x1="29.4" y1="42" x2="40.6" y2="42" stroke="#2A1A08" stroke-width="0.8"/>
  <path d="M53,25 Q53,32 60,39 Q67,32 67,25 Z" fill="#1A3A6A" stroke="#2A1A08" stroke-width="0.6"/>
  <line x1="55.8" y1="39" x2="64.2" y2="39" stroke="#2A1A08" stroke-width="0.8"/>
  <line x1="60" y1="39" x2="60" y2="42" stroke="#2A1A08" stroke-width="0.8"/>
  <line x1="54.4" y1="42" x2="65.6" y2="42" stroke="#2A1A08" stroke-width="0.8"/>
  <path d="M78,25 Q78,32 85,39 Q92,32 92,25 Z" fill="#1A3A6A" stroke="#2A1A08" stroke-width="0.6"/>
  <line x1="80.8" y1="39" x2="89.2" y2="39" stroke="#2A1A08" stroke-width="0.8"/>
  <line x1="85" y1="39" x2="85" y2="42" stroke="#2A1A08" stroke-width="0.8"/>
  <line x1="79.4" y1="42" x2="90.6" y2="42" stroke="#2A1A08" stroke-width="0.8"/>
  <path d="M28,71 Q28,78 35,85 Q42,78 42,71 Z" fill="#1A3A6A" stroke="#2A1A08" stroke-width="0.6"/>
  <line x1="30.8" y1="85" x2="39.2" y2="85" stroke="#2A1A08" stroke-width="0.8"/>
  <line x1="35" y1="85" x2="35" y2="88" stroke="#2A1A08" stroke-width="0.8"/>
  <line x1="29.4" y1="88" x2="40.6" y2="88" stroke="#2A1A08" stroke-width="0.8"/>
  <path d="M78,71 Q78,78 85,85 Q92,78 92,71 Z" fill="#1A3A6A" stroke="#2A1A08" stroke-width="0.6"/>
  <line x1="80.8" y1="85" x2="89.2" y2="85" stroke="#2A1A08" stroke-width="0.8"/>
  <line x1="85" y1="85" x2="85" y2="88" stroke="#2A1A08" stroke-width="0.8"/>
  <line x1="79.4" y1="88" x2="90.6" y2="88" stroke="#2A1A08" stroke-width="0.8"/>
  <path d="M28,101 Q28,108 35,115 Q42,108 42,101 Z" fill="#1A3A6A" stroke="#2A1A08" stroke-width="0.6"/>
  <line x1="30.8" y1="115" x2="39.2" y2="115" stroke="#2A1A08" stroke-width="0.8"/>
  <line x1="35" y1="115" x2="35" y2="118" stroke="#2A1A08" stroke-width="0.8"/>
  <line x1="29.4" y1="118" x2="40.6" y2="118" stroke="#2A1A08" stroke-width="0.8"/>
  <path d="M78,101 Q78,108 85,115 Q92,108 92,101 Z" fill="#1A3A6A" stroke="#2A1A08" stroke-width="0.6"/>
  <line x1="80.8" y1="115" x2="89.2" y2="115" stroke="#2A1A08" stroke-width="0.8"/>
  <line x1="85" y1="115" x2="85" y2="118" stroke="#2A1A08" stroke-width="0.8"/>
  <line x1="79.4" y1="118" x2="90.6" y2="118" stroke="#2A1A08" stroke-width="0.8"/>
  <path d="M28,138 Q28,145 35,152 Q42,145 42,138 Z" fill="#1A3A6A" stroke="#2A1A08" stroke-width="0.6"/>
  <line x1="30.8" y1="152" x2="39.2" y2="152" stroke="#2A1A08" stroke-width="0.8"/>
  <line x1="35" y1="152" x2="35" y2="155" stroke="#2A1A08" stroke-width="0.8"/>
  <line x1="29.4" y1="155" x2="40.6" y2="155" stroke="#2A1A08" stroke-width="0.8"/>
  <path d="M78,138 Q78,145 85,152 Q92,145 92,138 Z" fill="#1A3A6A" stroke="#2A1A08" stroke-width="0.6"/>
  <line x1="80.8" y1="152" x2="89.2" y2="152" stroke="#2A1A08" stroke-width="0.8"/>
  <line x1="85" y1="152" x2="85" y2="155" stroke="#2A1A08" stroke-width="0.8"/>
  <line x1="79.4" y1="155" x2="90.6" y2="155" stroke="#2A1A08" stroke-width="0.8"/>
  <text x="60" y="186" text-anchor="middle" font-family="serif" font-size="6.5" font-weight="normal" fill="#2A1A08" style="">NINE OF CUPS</text>

</svg>