<svg xmlns="http://www.w3.org/2000/svg" viewBox="0 0 120 200" width="120" height="200">
  <defs>
    <linearGradient id="bg" x1="0" y1="0" x2="0" y2="1">
      <stop offset="0%" stop-color="#F8EDD8"/>
      <stop offset="100%" stop-color="#E8D4A8"/>
    </linearGradient>
    <filter id="aged">
      <feTurbulence type="fractalNoise" baseFrequency="0.65" numOctaves="3" result="noise"/>
      <feColorMatrix type="saturate" values="0" in="noise" result="grey"/>
      <feBlend in="SourceGraphic" in2="grey" mode="multiply" result="blend"/>
    </filter>
  </defs>
  <!-- bg -->
  <rect width="120" height="200" rx="8" fill="url(#bg)"/>
  <!-- border double -->
  <rect x="4" y="4" width="112" height="192" rx="6" fill="none" stroke="#C8A030" stroke-width="1.5"/>
  <rect x="7" y="7" width="106" height="186" rx="4" fill="none" stroke="#C8A030" stroke-width="0.6" opacity="0.6"/>
  <text x="60" y="28" text-anchor="middle" font-family="serif" font-size="9" font-weight="bold" fill="#C8A030" style="">XVII</text>
  <text x="10" y="25" text-anchor="start" font-family="serif" font-size="8" font-weight="normal" fill="#C8A030" style="">✦</text>
  <text x="110" y="25" text-anchor="end" font-family="serif" font-size="8" font-weight="normal" fill="#C8A030" style="">✦</text>
  <rect x="0" y="15" width="120" height="180" rx="0" fill="#1A2040" stroke="none" stroke-width="1"/>
  <circle cx="60" cy="40" r="15" fill="#C8A030" stroke="#C8A030" stroke-width="1"/>
<line x1="60" y1="40" x2="73.0" y2="40.0" stroke="#F5E6C8" stroke-width="2"/><line x1="60" y1="40" x2="69.2" y2="49.2" stroke="#F5E6C8" stroke-width="2"/><line x1="60" y1="40" x2="60.0" y2="53.0" stroke="#F5E6C8" stroke-width="2"/><line x1="60" y1="40" x2="50.8" y2="49.2" stroke="#F5E6C8" stroke-width="2"/><line x1="60" y1="40" x2="47.0" y2="40.0" stroke="#F5E6C8" stroke-width="2"/><line x1="60" y1="40" x2="50.8" y2="30.8" stroke="#F5E6C8" stroke-width="2"/><line x1="60" y1="40" x2="60.0" y2="27.0" stroke="#F5E6C8" stroke-width="2"/><line x1="60" y1="40" x2="69.2" y2="30.8" stroke="#F5E6C8" stroke-width="2"/><circle cx="20" cy="70" r="3" fill="#C8A030"/><circle cx="35" cy="65" r="3" fill="#C8A030"/><circle cx="50" cy="60" r="3" fill="#C8A030"/><circle cx="65" cy="55" r="3" fill="#C8A030"/><circle cx="80" cy="60" r="3" fill="#C8A030"/><circle cx="95" cy="65" r="3" fill="#C8A030"/><circle cx="110" cy="70" r="3" fill="#C8A030"/>  <path d="M10,145 Q60,165 110,145 L110,180 Q60,175 10,180 Z" fill="#1A3A6A" stroke="none" stroke-width="1"/>
  <circle cx="55" cy="115" r="7" fill="#FFD0A0" stroke="#2A1A08" stroke-width="0.8"/>
  <path d="M55,122 L55,148 M46,132 L64,132" fill="none" stroke="#FFD0A0" stroke-width="1.5"/>
  <path d="M55,148 L48,162 M55,148 L62,162" fill="none" stroke="#FFD0A0" stroke-width="1.2"/>
  <path d="M35,133 Q35,138 40,143 Q45,138 45,133 Z" fill="#1A3A6A" stroke="#2A1A08" stroke-width="0.6"/>
  <line x1="37.0" y1="143" x2="43.0" y2="143" stroke="#2A1A08" stroke-width="0.8"/>
  <line x1="40" y1="143" x2="40" y2="146" stroke="#2A1A08" stroke-width="0.8"/>
  <line x1="36.0" y1="146" x2="44.0" y2="146" stroke="#2A1A08" stroke-width="0.8"/>
  <path d="M65,123 Q65,128 70,133 Q75,128 75,123 Z" fill="#1A3A6A" stroke="#2A1A08" stroke-width="0.6"/>
  <line x1="67.0" y1="133" x2="73.0" y2="133" stroke="#2A1A08" stroke-width="0.8"/>
  <line x1="70" y1="133" x2="70" y2="136" stroke="#2A1A08" stroke-width="0.8"/>
  <line x1="66.0" y1="136" x2="74.0" y2="136" stroke="#2A1A08" stroke-width="0.8"/>
  <path d="M45,140 Q38,148 35,158" fill="none" stroke="#1A3A6A" stroke-width="1.2"/>
  <path d="M72,130 Q78,140 80,152" fill="none" stroke="#1A3A6A" stroke-width="1.2"/>
  <path d="M95,100 Q100,90 105,100" fill="#FEFAF0" stroke="#2A1A08" stroke-width="0.5"/>
  <line x1="100" y1="100" x2="100" y2="120" stroke="#2A1A08" stroke-width="1.2"/>
  <path d="M0,162 Q25,145 50,162 Z" fill="#1A5A1A" stroke="none" stroke-width="1"/>
  <path d="M70,162 Q95,145 120,162 Z" fill="#1A5A1A" stroke="none" stroke-width="1"/>
  <text x="60" y="186" text-anchor="middle" font-family="serif" font-size="6.5" font-weight="normal" fill="#2A1A08" style="">THE STAR</text>

</svg>