<svg xmlns="http://www.w3.org/2000/svg" viewBox="0 0 120 200" width="120" height="200">
  <defs>
    <linearGradient id="bg" x1="0" y1="0" x2="0" y2="1">
      <stop offset="0%" stop-color="#F8EDD8"/>
      <stop offset="100%" stop-color="#E8D4A8"/>
    </linearGradient>
    <filter id="aged">
      <feTurbulence type="fractalNoise" baseFrequency="0.65" numOctaves="3" result="noise"/>
      <feColorMatrix type="saturate" values="0" in="noise" result="grey"/>
      <feBlend in="SourceGraphic" in2="grey" mode="multiply" result="blend"/>
    </filter>
  </defs>
  <!-- bg -->
  <rect width="120" height="200" rx="8" fill="url(#bg)"/>
  <!-- border double -->
  <rect x="4" y="4" width="112" height="192" rx="6" fill="none" stroke="#C8A030" stroke-width="1.5"/>
  <rect x="7" y="7" width="106" height="186" rx="4" fill="none" stroke="#C8A030" stroke-width="0.6" opacity="0.6"/>
  <text x="60" y="28" text-anchor="middle" font-family="serif" font-size="9" font-weight="bold" fill="#C8A030" style="">XIII</text>
  <text x="10" y="25" text-anchor="start" font-family="serif" font-size="8" font-weight="normal" fill="#C8A030" style="">✦</text>
  <text x="110" y="25" text-anchor="end" font-family="serif" font-size="8" font-weight="normal" fill="#C8A030" style="">✦</text>
  <rect x="0" y="15" width="120" height="80" rx="0" fill="#FFA020" stroke="none" stroke-width="1"/>
  <circle cx="60" cy="80" r="20" fill="#FFD700" stroke="#C8A030" stroke-width="1"/>
<line x1="78.0" y1="80.0" x2="86.0" y2="80.0" stroke="#C8A030" stroke-width="1.2"/><line x1="75.6" y1="89.0" x2="82.5" y2="93.0" stroke="#C8A030" stroke-width="1.2"/><line x1="69.0" y1="95.6" x2="73.0" y2="102.5" stroke="#C8A030" stroke-width="1.2"/><line x1="60.0" y1="98.0" x2="60.0" y2="106.0" stroke="#C8A030" stroke-width="1.2"/><line x1="51.0" y1="95.6" x2="47.0" y2="102.5" stroke="#C8A030" stroke-width="1.2"/><line x1="44.4" y1="89.0" x2="37.5" y2="93.0" stroke="#C8A030" stroke-width="1.2"/><line x1="42.0" y1="80.0" x2="34.0" y2="80.0" stroke="#C8A030" stroke-width="1.2"/><line x1="44.4" y1="71.0" x2="37.5" y2="67.0" stroke="#C8A030" stroke-width="1.2"/><line x1="51.0" y1="64.4" x2="47.0" y2="57.5" stroke="#C8A030" stroke-width="1.2"/><line x1="60.0" y1="62.0" x2="60.0" y2="54.0" stroke="#C8A030" stroke-width="1.2"/><line x1="69.0" y1="64.4" x2="73.0" y2="57.5" stroke="#C8A030" stroke-width="1.2"/><line x1="75.6" y1="71.0" x2="82.5" y2="67.0" stroke="#C8A030" stroke-width="1.2"/>  <path d="M30,130 Q50,110 80,120 Q90,135 85,155 Q70,165 50,160 Q30,155 30,130 Z" fill="#2A1A08" stroke="#2A1A08" stroke-width="1"/>
  <circle cx="65" cy="88" r="6" fill="#FEFAF0" stroke="#2A1A08" stroke-width="0.8"/>
  <path d="M65,94 L65,115 M58,100 L72,100" fill="none" stroke="#FEFAF0" stroke-width="1.2"/>
  <line x1="72" y1="100" x2="72" y2="70" stroke="#FEFAF0" stroke-width="1.5"/>
  <rect x="72" y="70" width="20" height="15" rx="0" fill="#FEFAF0" stroke="#2A1A08" stroke-width="0.5"/>
  <circle cx="82" cy="78" r="4" fill="#8B1A1A" stroke="#C8A030" stroke-width="1"/>
  <path d="M10,155 L25,148 L30,155" fill="none" stroke="#C8A030" stroke-width="1"/>
  <circle cx="12" cy="152" r="5" fill="#C8A030" stroke="#C8A030" stroke-width="1"/>
  <circle cx="95" cy="140" r="5" fill="#FFD0A0" stroke="#2A1A08" stroke-width="0.7"/>
  <path d="M95,145 L95,165" fill="none" stroke="#FEFAF0" stroke-width="1.2"/>
  <circle cx="105" cy="148" r="4" fill="#FFD0A0" stroke="#2A1A08" stroke-width="0.7"/>
  <text x="60" y="186" text-anchor="middle" font-family="serif" font-size="6.5" font-weight="normal" fill="#2A1A08" style="">DEATH</text>

</svg>