<svg xmlns="http://www.w3.org/2000/svg" viewBox="0 0 120 200" width="120" height="200">
  <defs>
    <linearGradient id="bg" x1="0" y1="0" x2="0" y2="1">
      <stop offset="0%" stop-color="#F8EDD8"/>
      <stop offset="100%" stop-color="#E8D4A8"/>
    </linearGradient>
    <filter id="aged">
      <feTurbulence type="fractalNoise" baseFrequency="0.65" numOctaves="3" result="noise"/>
      <feColorMatrix type="saturate" values="0" in="noise" result="grey"/>
      <feBlend in="SourceGraphic" in2="grey" mode="multiply" result="blend"/>
    </filter>
  </defs>
  <!-- bg -->
  <rect width="120" height="200" rx="8" fill="url(#bg)"/>
  <!-- border double -->
  <rect x="4" y="4" width="112" height="192" rx="6" fill="none" stroke="#C8A030" stroke-width="1.5"/>
  <rect x="7" y="7" width="106" height="186" rx="4" fill="none" stroke="#C8A030" stroke-width="0.6" opacity="0.6"/>
  <text x="60" y="28" text-anchor="middle" font-family="serif" font-size="9" font-weight="bold" fill="#C8A030" style="">VI</text>
  <text x="10" y="25" text-anchor="start" font-family="serif" font-size="8" font-weight="normal" fill="#C8A030" style="">✦</text>
  <text x="110" y="25" text-anchor="end" font-family="serif" font-size="8" font-weight="normal" fill="#C8A030" style="">✦</text>
  <rect x="0" y="15" width="120" height="80" rx="0" fill="#FFC040" stroke="none" stroke-width="1"/>
  <circle cx="60" cy="35" r="10" fill="#FFD0A0" stroke="#2A1A08" stroke-width="0.8"/>
  <path d="M50,38 Q40,30 35,40 M70,38 Q80,30 85,40" fill="#FF8080" stroke="#8B1A1A" stroke-width="0.8"/>
<line x1="60" y1="25" x2="74.0" y2="25.0" stroke="#C8A030" stroke-width="1"/><line x1="60" y1="25" x2="72.1" y2="32.0" stroke="#C8A030" stroke-width="1"/><line x1="60" y1="25" x2="67.0" y2="37.1" stroke="#C8A030" stroke-width="1"/><line x1="60" y1="25" x2="60.0" y2="39.0" stroke="#C8A030" stroke-width="1"/><line x1="60" y1="25" x2="53.0" y2="37.1" stroke="#C8A030" stroke-width="1"/><line x1="60" y1="25" x2="47.9" y2="32.0" stroke="#C8A030" stroke-width="1"/><line x1="60" y1="25" x2="46.0" y2="25.0" stroke="#C8A030" stroke-width="1"/><line x1="60" y1="25" x2="47.9" y2="18.0" stroke="#C8A030" stroke-width="1"/><line x1="60" y1="25" x2="53.0" y2="12.9" stroke="#C8A030" stroke-width="1"/><line x1="60" y1="25" x2="60.0" y2="11.0" stroke="#C8A030" stroke-width="1"/><line x1="60" y1="25" x2="67.0" y2="12.9" stroke="#C8A030" stroke-width="1"/><line x1="60" y1="25" x2="72.1" y2="18.0" stroke="#C8A030" stroke-width="1"/>  <circle cx="40" cy="115" r="6" fill="#FFD0A0" stroke="#2A1A08" stroke-width="0.7"/>
  <path d="M40,121 L40,148 M34,130 L46,130 M40,148 L36,162 M40,148 L44,162" fill="none" stroke="#8B1A1A" stroke-width="1.2"/>
  <circle cx="80" cy="115" r="6" fill="#FFD0A0" stroke="#2A1A08" stroke-width="0.7"/>
  <path d="M80,121 L80,148 M74,130 L86,130 M80,148 L76,162 M80,148 L84,162" fill="none" stroke="#FEFAF0" stroke-width="1.2"/>
  <line x1="80" y1="162" x2="80" y2="120" stroke="#2A1A08" stroke-width="1.5"/>
  <circle cx="78" cy="108" r="8" fill="#1A5A1A" stroke="#1A5A1A" stroke-width="0.5"/>
<circle cx="75" cy="105" r="2" fill="#8B1A1A"/><circle cx="75" cy="110" r="2" fill="#8B1A1A"/><circle cx="79" cy="105" r="2" fill="#8B1A1A"/><circle cx="79" cy="110" r="2" fill="#8B1A1A"/><circle cx="83" cy="105" r="2" fill="#8B1A1A"/><circle cx="83" cy="110" r="2" fill="#8B1A1A"/>  <line x1="40" y1="162" x2="40" y2="120" stroke="#2A1A08" stroke-width="1.5"/>
  <circle cx="38" cy="108" r="8" fill="#1A5A1A" stroke="#C8A030" stroke-width="1"/>
<path d="M36,115 Q37,108 38,115" fill="#8B1A1A" stroke="none"/><path d="M39,115 Q40,108 41,115" fill="#8B1A1A" stroke="none"/><path d="M42,115 Q43,108 44,115" fill="#8B1A1A" stroke="none"/>  <path d="M45,162 L60,130 L75,162 Z" fill="#888888" stroke="#2A1A08" stroke-width="0.5"/>
  <text x="60" y="186" text-anchor="middle" font-family="serif" font-size="6.5" font-weight="normal" fill="#2A1A08" style="">THE LOVERS</text>

</svg>