<svg xmlns="http://www.w3.org/2000/svg" viewBox="0 0 120 200" width="120" height="200">
  <defs>
    <linearGradient id="bg" x1="0" y1="0" x2="0" y2="1">
      <stop offset="0%" stop-color="#F8EDD8"/>
      <stop offset="100%" stop-color="#E8D4A8"/>
    </linearGradient>
    <filter id="aged">
      <feTurbulence type="fractalNoise" baseFrequency="0.65" numOctaves="3" result="noise"/>
      <feColorMatrix type="saturate" values="0" in="noise" result="grey"/>
      <feBlend in="SourceGraphic" in2="grey" mode="multiply" result="blend"/>
    </filter>
  </defs>
  <!-- bg -->
  <rect width="120" height="200" rx="8" fill="url(#bg)"/>
  <!-- border double -->
  <rect x="4" y="4" width="112" height="192" rx="6" fill="none" stroke="#C8A030" stroke-width="1.5"/>
  <rect x="7" y="7" width="106" height="186" rx="4" fill="none" stroke="#C8A030" stroke-width="0.6" opacity="0.6"/>
  <text x="60" y="28" text-anchor="middle" font-family="serif" font-size="9" font-weight="bold" fill="#C8A030" style="">VIII</text>
  <text x="10" y="25" text-anchor="start" font-family="serif" font-size="8" font-weight="normal" fill="#C8A030" style="">✦</text>
  <text x="110" y="25" text-anchor="end" font-family="serif" font-size="8" font-weight="normal" fill="#C8A030" style="">✦</text>
  <path d="M48,40 Q60,32 72,40 Q60,48 48,40" fill="none" stroke="#C8A030" stroke-width="1.5"/>
  <path d="M20,130 Q30,100 50,110 Q70,100 85,120 Q90,140 80,155 Q60,165 40,155 Q25,148 20,130 Z" fill="#D4A030" stroke="#2A1A08" stroke-width="1"/>
  <circle cx="52" cy="120" r="18" fill="#C08020" stroke="none" stroke-width="1"/>
  <circle cx="52" cy="118" r="12" fill="#D4A030" stroke="#2A1A08" stroke-width="0.8"/>
  <circle cx="60" cy="75" r="7" fill="#FFD0A0" stroke="#2A1A08" stroke-width="0.8"/>
  <path d="M60,82 L60,108 M53,90 L67,90" fill="none" stroke="#FEFAF0" stroke-width="1.5"/>
<circle cx="58" cy="70" r="2" fill="#FF80A0"/><circle cx="62" cy="70" r="2" fill="#FF80A0"/><circle cx="66" cy="70" r="2" fill="#FF80A0"/>  <path d="M54,118 L60,124 L66,118" fill="none" stroke="#FFD0A0" stroke-width="2"/>
  <path d="M0,165 L20,130 L40,165 Z" fill="#888888" stroke="#2A1A08" stroke-width="0.5"/>
  <path d="M80,165 L100,130 L115,165 Z" fill="#888888" stroke="#2A1A08" stroke-width="0.5"/>
  <text x="60" y="186" text-anchor="middle" font-family="serif" font-size="6.5" font-weight="normal" fill="#2A1A08" style="">STRENGTH</text>

</svg>