<svg xmlns="http://www.w3.org/2000/svg" viewBox="0 0 120 200" width="120" height="200">
  <defs>
    <linearGradient id="bg" x1="0" y1="0" x2="0" y2="1">
      <stop offset="0%" stop-color="#F8EDD8"/>
      <stop offset="100%" stop-color="#E8D4A8"/>
    </linearGradient>
    <filter id="aged">
      <feTurbulence type="fractalNoise" baseFrequency="0.65" numOctaves="3" result="noise"/>
      <feColorMatrix type="saturate" values="0" in="noise" result="grey"/>
      <feBlend in="SourceGraphic" in2="grey" mode="multiply" result="blend"/>
    </filter>
  </defs>
  <!-- bg -->
  <rect width="120" height="200" rx="8" fill="url(#bg)"/>
  <!-- border double -->
  <rect x="4" y="4" width="112" height="192" rx="6" fill="none" stroke="#C8A030" stroke-width="1.5"/>
  <rect x="7" y="7" width="106" height="186" rx="4" fill="none" stroke="#C8A030" stroke-width="0.6" opacity="0.6"/>
  <text x="60" y="28" text-anchor="middle" font-family="serif" font-size="9" font-weight="bold" fill="#1A3A6A" style="">IV</text>
  <text x="10" y="25" text-anchor="start" font-family="serif" font-size="8" font-weight="normal" fill="#1A3A6A" style="">🜄</text>
  <text x="110" y="25" text-anchor="end" font-family="serif" font-size="8" font-weight="normal" fill="#1A3A6A" style="">🜄</text>
  <path d="M28,48 Q28,55 35,62 Q42,55 42,48 Z" fill="#1A3A6A" stroke="#2A1A08" stroke-width="0.6"/>
  <line x1="30.8" y1="62" x2="39.2" y2="62" stroke="#2A1A08" stroke-width="0.8"/>
  <line x1="35" y1="62" x2="35" y2="65" stroke="#2A1A08" stroke-width="0.8"/>
  <line x1="29.4" y1="65" x2="40.6" y2="65" stroke="#2A1A08" stroke-width="0.8"/>
  <path d="M78,48 Q78,55 85,62 Q92,55 92,48 Z" fill="#1A3A6A" stroke="#2A1A08" stroke-width="0.6"/>
  <line x1="80.8" y1="62" x2="89.2" y2="62" stroke="#2A1A08" stroke-width="0.8"/>
  <line x1="85" y1="62" x2="85" y2="65" stroke="#2A1A08" stroke-width="0.8"/>
  <line x1="79.4" y1="65" x2="90.6" y2="65" stroke="#2A1A08" stroke-width="0.8"/>
  <path d="M28,123 Q28,130 35,137 Q42,130 42,123 Z" fill="#1A3A6A" stroke="#2A1A08" stroke-width="0.6"/>
  <line x1="30.8" y1="137" x2="39.2" y2="137" stroke="#2A1A08" stroke-width="0.8"/>
  <line x1="35" y1="137" x2="35" y2="140" stroke="#2A1A08" stroke-width="0.8"/>
  <line x1="29.4" y1="140" x2="40.6" y2="140" stroke="#2A1A08" stroke-width="0.8"/>
  <path d="M78,123 Q78,130 85,137 Q92,130 92,123 Z" fill="#1A3A6A" stroke="#2A1A08" stroke-width="0.6"/>
  <line x1="80.8" y1="137" x2="89.2" y2="137" stroke="#2A1A08" stroke-width="0.8"/>
  <line x1="85" y1="137" x2="85" y2="140" stroke="#2A1A08" stroke-width="0.8"/>
  <line x1="79.4" y1="140" x2="90.6" y2="140" stroke="#2A1A08" stroke-width="0.8"/>
  <text x="60" y="186" text-anchor="middle" font-family="serif" font-size="6.5" font-weight="normal" fill="#2A1A08" style="">FOUR OF CUPS</text>

</svg>