<svg xmlns="http://www.w3.org/2000/svg" viewBox="0 0 120 200" width="120" height="200">
  <defs>
    <linearGradient id="bg" x1="0" y1="0" x2="0" y2="1">
      <stop offset="0%" stop-color="#F8EDD8"/>
      <stop offset="100%" stop-color="#E8D4A8"/>
    </linearGradient>
    <filter id="aged">
      <feTurbulence type="fractalNoise" baseFrequency="0.65" numOctaves="3" result="noise"/>
      <feColorMatrix type="saturate" values="0" in="noise" result="grey"/>
      <feBlend in="SourceGraphic" in2="grey" mode="multiply" result="blend"/>
    </filter>
  </defs>
  <!-- bg -->
  <rect width="120" height="200" rx="8" fill="url(#bg)"/>
  <!-- border double -->
  <rect x="4" y="4" width="112" height="192" rx="6" fill="none" stroke="#C8A030" stroke-width="1.5"/>
  <rect x="7" y="7" width="106" height="186" rx="4" fill="none" stroke="#C8A030" stroke-width="0.6" opacity="0.6"/>
  <text x="60" y="28" text-anchor="middle" font-family="serif" font-size="9" font-weight="bold" fill="#8B1A1A" style="">IX</text>
  <text x="10" y="25" text-anchor="start" font-family="serif" font-size="8" font-weight="normal" fill="#8B1A1A" style="">♦</text>
  <text x="110" y="25" text-anchor="end" font-family="serif" font-size="8" font-weight="normal" fill="#8B1A1A" style="">♦</text>
  <line x1="35" y1="25" x2="35" y2="39" stroke="#8B1A1A" stroke-width="1.5"/>
  <circle cx="35" cy="25" r="1.5" fill="#1A5A1A"/>
  <line x1="32" y1="29" x2="38" y2="29" stroke="#1A5A1A" stroke-width="0.8"/>
  <line x1="32" y1="32" x2="38" y2="32" stroke="#1A5A1A" stroke-width="0.8"/>
  <line x1="60" y1="25" x2="60" y2="39" stroke="#8B1A1A" stroke-width="1.5"/>
  <circle cx="60" cy="25" r="1.5" fill="#1A5A1A"/>
  <line x1="57" y1="29" x2="63" y2="29" stroke="#1A5A1A" stroke-width="0.8"/>
  <line x1="57" y1="32" x2="63" y2="32" stroke="#1A5A1A" stroke-width="0.8"/>
  <line x1="85" y1="25" x2="85" y2="39" stroke="#8B1A1A" stroke-width="1.5"/>
  <circle cx="85" cy="25" r="1.5" fill="#1A5A1A"/>
  <line x1="82" y1="29" x2="88" y2="29" stroke="#1A5A1A" stroke-width="0.8"/>
  <line x1="82" y1="32" x2="88" y2="32" stroke="#1A5A1A" stroke-width="0.8"/>
  <line x1="35" y1="71" x2="35" y2="85" stroke="#8B1A1A" stroke-width="1.5"/>
  <circle cx="35" cy="71" r="1.5" fill="#1A5A1A"/>
  <line x1="32" y1="75" x2="38" y2="75" stroke="#1A5A1A" stroke-width="0.8"/>
  <line x1="32" y1="78" x2="38" y2="78" stroke="#1A5A1A" stroke-width="0.8"/>
  <line x1="85" y1="71" x2="85" y2="85" stroke="#8B1A1A" stroke-width="1.5"/>
  <circle cx="85" cy="71" r="1.5" fill="#1A5A1A"/>
  <line x1="82" y1="75" x2="88" y2="75" stroke="#1A5A1A" stroke-width="0.8"/>
  <line x1="82" y1="78" x2="88" y2="78" stroke="#1A5A1A" stroke-width="0.8"/>
  <line x1="35" y1="101" x2="35" y2="115" stroke="#8B1A1A" stroke-width="1.5"/>
  <circle cx="35" cy="101" r="1.5" fill="#1A5A1A"/>
  <line x1="32" y1="105" x2="38" y2="105" stroke="#1A5A1A" stroke-width="0.8"/>
  <line x1="32" y1="108" x2="38" y2="108" stroke="#1A5A1A" stroke-width="0.8"/>
  <line x1="85" y1="101" x2="85" y2="115" stroke="#8B1A1A" stroke-width="1.5"/>
  <circle cx="85" cy="101" r="1.5" fill="#1A5A1A"/>
  <line x1="82" y1="105" x2="88" y2="105" stroke="#1A5A1A" stroke-width="0.8"/>
  <line x1="82" y1="108" x2="88" y2="108" stroke="#1A5A1A" stroke-width="0.8"/>
  <line x1="35" y1="138" x2="35" y2="152" stroke="#8B1A1A" stroke-width="1.5"/>
  <circle cx="35" cy="138" r="1.5" fill="#1A5A1A"/>
  <line x1="32" y1="142" x2="38" y2="142" stroke="#1A5A1A" stroke-width="0.8"/>
  <line x1="32" y1="145" x2="38" y2="145" stroke="#1A5A1A" stroke-width="0.8"/>
  <line x1="85" y1="138" x2="85" y2="152" stroke="#8B1A1A" stroke-width="1.5"/>
  <circle cx="85" cy="138" r="1.5" fill="#1A5A1A"/>
  <line x1="82" y1="142" x2="88" y2="142" stroke="#1A5A1A" stroke-width="0.8"/>
  <line x1="82" y1="145" x2="88" y2="145" stroke="#1A5A1A" stroke-width="0.8"/>
  <text x="60" y="186" text-anchor="middle" font-family="serif" font-size="6.5" font-weight="normal" fill="#2A1A08" style="">NINE OF WANDS</text>

</svg>