<svg xmlns="http://www.w3.org/2000/svg" viewBox="0 0 120 200" width="120" height="200">
  <defs>
    <linearGradient id="bg" x1="0" y1="0" x2="0" y2="1">
      <stop offset="0%" stop-color="#F8EDD8"/>
      <stop offset="100%" stop-color="#E8D4A8"/>
    </linearGradient>
    <filter id="aged">
      <feTurbulence type="fractalNoise" baseFrequency="0.65" numOctaves="3" result="noise"/>
      <feColorMatrix type="saturate" values="0" in="noise" result="grey"/>
      <feBlend in="SourceGraphic" in2="grey" mode="multiply" result="blend"/>
    </filter>
  </defs>
  <!-- bg -->
  <rect width="120" height="200" rx="8" fill="url(#bg)"/>
  <!-- border double -->
  <rect x="4" y="4" width="112" height="192" rx="6" fill="none" stroke="#C8A030" stroke-width="1.5"/>
  <rect x="7" y="7" width="106" height="186" rx="4" fill="none" stroke="#C8A030" stroke-width="0.6" opacity="0.6"/>
  <text x="60" y="28" text-anchor="middle" font-family="serif" font-size="9" font-weight="bold" fill="#C8A030" style="">I</text>
  <text x="10" y="25" text-anchor="start" font-family="serif" font-size="8" font-weight="normal" fill="#C8A030" style="">✦</text>
  <text x="110" y="25" text-anchor="end" font-family="serif" font-size="8" font-weight="normal" fill="#C8A030" style="">✦</text>
  <circle cx="60" cy="30" r="8" fill="none" stroke="#C8A030" stroke-width="1.5"/>
  <path d="M52,30 Q60,22 68,30 Q60,38 52,30" fill="none" stroke="#C8A030" stroke-width="1"/>
  <path d="M60,80 L60,55 M55,62 L65,62 M60,55 L56,75 M60,55 L64,75" fill="none" stroke="#8B1A1A" stroke-width="1.5"/>
  <circle cx="60" cy="52" r="6" fill="#FFD0A0" stroke="#2A1A08" stroke-width="0.8"/>
  <line x1="65" y1="62" x2="72" y2="42" stroke="#8B1A1A" stroke-width="2"/>
  <circle cx="72" cy="40" r="2.5" fill="#C8A030" stroke="#C8A030" stroke-width="1"/>
  <rect x="20" y="110" width="80" height="8" rx="0" fill="#8B6000" stroke="#2A1A08" stroke-width="0.8"/>
  <path d="M28,93 Q28,100 35,107 Q42,100 42,93 Z" fill="#1A3A6A" stroke="#2A1A08" stroke-width="0.6"/>
  <line x1="30.8" y1="107" x2="39.2" y2="107" stroke="#2A1A08" stroke-width="0.8"/>
  <line x1="35" y1="107" x2="35" y2="110" stroke="#2A1A08" stroke-width="0.8"/>
  <line x1="29.4" y1="110" x2="40.6" y2="110" stroke="#2A1A08" stroke-width="0.8"/>
  <line x1="50" y1="95" x2="50" y2="105" stroke="#8B1A1A" stroke-width="1.5"/>
  <circle cx="50" cy="95" r="1.5" fill="#1A5A1A"/>
  <line x1="47" y1="99" x2="53" y2="99" stroke="#1A5A1A" stroke-width="0.8"/>
  <line x1="47" y1="100" x2="53" y2="100" stroke="#1A5A1A" stroke-width="0.8"/>
  <line x1="70" y1="95" x2="70" y2="105" stroke="#888888" stroke-width="1.5"/>
  <line x1="67.5" y1="98.5" x2="72.5" y2="98.5" stroke="#888888" stroke-width="1.2"/>
  <circle cx="70" cy="95" r="1.5" fill="#C8A030"/>
  <circle cx="85" cy="100" r="6" fill="none" stroke="#C8A030" stroke-width="0.8"/>
  <path d="M85.0,96.0 L82.6,103.2 L88.8,98.8 L81.2,98.8 L87.4,103.2 L85.0,96.0" fill="#C8A030" stroke="#2A1A08" stroke-width="0.5" opacity="0.85"/>
  <path d="M15,50 Q20,45 25,50 Q20,55 15,50" fill="#FF80A0" stroke="none" stroke-width="1"/>
  <path d="M95,50 Q100,45 105,50 Q100,55 95,50" fill="#FEFAF0" stroke="none" stroke-width="1"/>
  <text x="60" y="186" text-anchor="middle" font-family="serif" font-size="6.5" font-weight="normal" fill="#2A1A08" style="">THE MAGICIAN</text>

</svg>