<svg xmlns="http://www.w3.org/2000/svg" viewBox="0 0 120 200" width="120" height="200">
  <defs>
    <linearGradient id="bg" x1="0" y1="0" x2="0" y2="1">
      <stop offset="0%" stop-color="#F8EDD8"/>
      <stop offset="100%" stop-color="#E8D4A8"/>
    </linearGradient>
    <filter id="aged">
      <feTurbulence type="fractalNoise" baseFrequency="0.65" numOctaves="3" result="noise"/>
      <feColorMatrix type="saturate" values="0" in="noise" result="grey"/>
      <feBlend in="SourceGraphic" in2="grey" mode="multiply" result="blend"/>
    </filter>
  </defs>
  <!-- bg -->
  <rect width="120" height="200" rx="8" fill="url(#bg)"/>
  <!-- border double -->
  <rect x="4" y="4" width="112" height="192" rx="6" fill="none" stroke="#C8A030" stroke-width="1.5"/>
  <rect x="7" y="7" width="106" height="186" rx="4" fill="none" stroke="#C8A030" stroke-width="0.6" opacity="0.6"/>
  <text x="60" y="28" text-anchor="middle" font-family="serif" font-size="9" font-weight="bold" fill="#C8A030" style="">XI</text>
  <text x="10" y="25" text-anchor="start" font-family="serif" font-size="8" font-weight="normal" fill="#C8A030" style="">✦</text>
  <text x="110" y="25" text-anchor="end" font-family="serif" font-size="8" font-weight="normal" fill="#C8A030" style="">✦</text>
  <rect x="20" y="80" width="80" height="90" rx="3" fill="#D0C0A0" stroke="#2A1A08" stroke-width="1"/>
  <rect x="10" y="60" width="20" height="120" rx="0" fill="#888888" stroke="#2A1A08" stroke-width="0.8"/>
  <rect x="90" y="60" width="20" height="120" rx="0" fill="#888888" stroke="#2A1A08" stroke-width="0.8"/>
  <path d="M60,145 L60,108 M52,116 L68,116" fill="none" stroke="#8B1A1A" stroke-width="1.5"/>
  <circle cx="60" cy="105" r="7" fill="#FFD0A0" stroke="#2A1A08" stroke-width="0.8"/>
  <path d="M53,99 L55,92 L60,97 L65,92 L67,99 Z" fill="#C8A030" stroke="#2A1A08" stroke-width="0.6"/>
  <line x1="60" y1="115" x2="60" y2="95" stroke="#C8A030" stroke-width="1.5"/>
  <line x1="45" y1="95" x2="75" y2="95" stroke="#C8A030" stroke-width="1.5"/>
  <circle cx="45" cy="95" r="0.5" fill="#C8A030" stroke="#C8A030" stroke-width="1"/>
  <path d="M38,100 Q45,105 52,100" fill="none" stroke="#C8A030" stroke-width="1"/>
  <path d="M68,100 Q75,105 82,100" fill="none" stroke="#C8A030" stroke-width="1"/>
  <line x1="70" y1="116" x2="70" y2="80" stroke="#888888" stroke-width="2"/>
  <circle cx="70" cy="78" r="2.5" fill="#C8A030" stroke="#C8A030" stroke-width="1"/>
  <line x1="64" y1="90" x2="76" y2="90" stroke="#888888" stroke-width="1.5"/>
  <path d="M31,68 L89,68 L89,80 L31,80 Z" fill="#8040A0" stroke="none" stroke-width="1"/>
  <text x="60" y="186" text-anchor="middle" font-family="serif" font-size="6.5" font-weight="normal" fill="#2A1A08" style="">JUSTICE</text>

</svg>