<svg xmlns="http://www.w3.org/2000/svg" viewBox="0 0 120 200" width="120" height="200">
  <defs>
    <linearGradient id="bg" x1="0" y1="0" x2="0" y2="1">
      <stop offset="0%" stop-color="#F8EDD8"/>
      <stop offset="100%" stop-color="#E8D4A8"/>
    </linearGradient>
    <filter id="aged">
      <feTurbulence type="fractalNoise" baseFrequency="0.65" numOctaves="3" result="noise"/>
      <feColorMatrix type="saturate" values="0" in="noise" result="grey"/>
      <feBlend in="SourceGraphic" in2="grey" mode="multiply" result="blend"/>
    </filter>
  </defs>
  <!-- bg -->
  <rect width="120" height="200" rx="8" fill="url(#bg)"/>
  <!-- border double -->
  <rect x="4" y="4" width="112" height="192" rx="6" fill="none" stroke="#C8A030" stroke-width="1.5"/>
  <rect x="7" y="7" width="106" height="186" rx="4" fill="none" stroke="#C8A030" stroke-width="0.6" opacity="0.6"/>
  <text x="60" y="28" text-anchor="middle" font-family="serif" font-size="9" font-weight="bold" fill="#C8A030" style="">II</text>
  <text x="10" y="25" text-anchor="start" font-family="serif" font-size="8" font-weight="normal" fill="#C8A030" style="">✦</text>
  <text x="110" y="25" text-anchor="end" font-family="serif" font-size="8" font-weight="normal" fill="#C8A030" style="">✦</text>
  <rect x="15" y="50" width="16" height="120" rx="0" fill="#1A1A6A" stroke="#2A1A08" stroke-width="0.8"/>
  <rect x="89" y="50" width="16" height="120" rx="0" fill="#EEEEEE" stroke="#2A1A08" stroke-width="0.8"/>
  <text x="23" y="63" text-anchor="middle" font-family="serif" font-size="8" font-weight="normal" fill="#FEFAF0" style="">B</text>
  <text x="97" y="63" text-anchor="middle" font-family="serif" font-size="8" font-weight="normal" fill="#2A1A08" style="">J</text>
  <path d="M31,55 L89,55 L89,170 L31,170 Z" fill="#4080A0" stroke="none" stroke-width="0"/>
  <path d="M31,55 Q60,65 89,55" fill="#6AADCA" stroke="none" stroke-width="1"/>
  <path d="M50,80 Q60,90 70,80 Q60,100 50,80" fill="#80C080" stroke="none" stroke-width="1"/>
  <path d="M60,120 L60,90 M54,97 L66,97 M60,90 L56,115 M60,90 L64,115" fill="none" stroke="#1A3A6A" stroke-width="1.5"/>
  <circle cx="60" cy="87" r="6" fill="#FFD0A0" stroke="#2A1A08" stroke-width="0.8"/>
  <rect x="52" y="100" width="16" height="12" rx="2" fill="#FEFAF0" stroke="#2A1A08" stroke-width="0.6"/>
  <text x="60" y="109" text-anchor="middle" font-family="serif" font-size="4" font-weight="normal" fill="#2A1A08" style="">TORA</text>
  <path d="M50,148 Q60,158 70,148" fill="none" stroke="#C8A030" stroke-width="1.5"/>
  <text x="60" y="186" text-anchor="middle" font-family="serif" font-size="6.5" font-weight="normal" fill="#2A1A08" style="">HIGH PRIESTESS</text>

</svg>