<svg xmlns="http://www.w3.org/2000/svg" viewBox="0 0 120 200" width="120" height="200">
  <defs>
    <linearGradient id="bg" x1="0" y1="0" x2="0" y2="1">
      <stop offset="0%" stop-color="#F8EDD8"/>
      <stop offset="100%" stop-color="#E8D4A8"/>
    </linearGradient>
    <filter id="aged">
      <feTurbulence type="fractalNoise" baseFrequency="0.65" numOctaves="3" result="noise"/>
      <feColorMatrix type="saturate" values="0" in="noise" result="grey"/>
      <feBlend in="SourceGraphic" in2="grey" mode="multiply" result="blend"/>
    </filter>
  </defs>
  <!-- bg -->
  <rect width="120" height="200" rx="8" fill="url(#bg)"/>
  <!-- border double -->
  <rect x="4" y="4" width="112" height="192" rx="6" fill="none" stroke="#C8A030" stroke-width="1.5"/>
  <rect x="7" y="7" width="106" height="186" rx="4" fill="none" stroke="#C8A030" stroke-width="0.6" opacity="0.6"/>
  <text x="60" y="28" text-anchor="middle" font-family="serif" font-size="9" font-weight="bold" fill="#C8A030" style="">VIII</text>
  <text x="10" y="25" text-anchor="start" font-family="serif" font-size="8" font-weight="normal" fill="#C8A030" style="">⭐</text>
  <text x="110" y="25" text-anchor="end" font-family="serif" font-size="8" font-weight="normal" fill="#C8A030" style="">⭐</text>
  <circle cx="35" cy="35" r="8" fill="none" stroke="#C8A030" stroke-width="0.8"/>
  <path d="M35.0,29.0 L31.5,39.9 L40.7,33.1 L29.3,33.1 L38.5,39.9 L35.0,29.0" fill="#C8A030" stroke="#2A1A08" stroke-width="0.5" opacity="0.85"/>
  <circle cx="85" cy="35" r="8" fill="none" stroke="#C8A030" stroke-width="0.8"/>
  <path d="M85.0,29.0 L81.5,39.9 L90.7,33.1 L79.3,33.1 L88.5,39.9 L85.0,29.0" fill="#C8A030" stroke="#2A1A08" stroke-width="0.5" opacity="0.85"/>
  <circle cx="35" cy="72" r="8" fill="none" stroke="#C8A030" stroke-width="0.8"/>
  <path d="M35.0,66.0 L31.5,76.9 L40.7,70.1 L29.3,70.1 L38.5,76.9 L35.0,66.0" fill="#C8A030" stroke="#2A1A08" stroke-width="0.5" opacity="0.85"/>
  <circle cx="85" cy="72" r="8" fill="none" stroke="#C8A030" stroke-width="0.8"/>
  <path d="M85.0,66.0 L81.5,76.9 L90.7,70.1 L79.3,70.1 L88.5,76.9 L85.0,66.0" fill="#C8A030" stroke="#2A1A08" stroke-width="0.5" opacity="0.85"/>
  <circle cx="35" cy="108" r="8" fill="none" stroke="#C8A030" stroke-width="0.8"/>
  <path d="M35.0,102.0 L31.5,112.9 L40.7,106.1 L29.3,106.1 L38.5,112.9 L35.0,102.0" fill="#C8A030" stroke="#2A1A08" stroke-width="0.5" opacity="0.85"/>
  <circle cx="85" cy="108" r="8" fill="none" stroke="#C8A030" stroke-width="0.8"/>
  <path d="M85.0,102.0 L81.5,112.9 L90.7,106.1 L79.3,106.1 L88.5,112.9 L85.0,102.0" fill="#C8A030" stroke="#2A1A08" stroke-width="0.5" opacity="0.85"/>
  <circle cx="35" cy="145" r="8" fill="none" stroke="#C8A030" stroke-width="0.8"/>
  <path d="M35.0,139.0 L31.5,149.9 L40.7,143.1 L29.3,143.1 L38.5,149.9 L35.0,139.0" fill="#C8A030" stroke="#2A1A08" stroke-width="0.5" opacity="0.85"/>
  <circle cx="85" cy="145" r="8" fill="none" stroke="#C8A030" stroke-width="0.8"/>
  <path d="M85.0,139.0 L81.5,149.9 L90.7,143.1 L79.3,143.1 L88.5,149.9 L85.0,139.0" fill="#C8A030" stroke="#2A1A08" stroke-width="0.5" opacity="0.85"/>
  <text x="60" y="186" text-anchor="middle" font-family="serif" font-size="6.5" font-weight="normal" fill="#2A1A08" style="">EIGHT OF PENTACLES</text>

</svg>