<svg xmlns="http://www.w3.org/2000/svg" viewBox="0 0 120 200" width="120" height="200">
  <defs>
    <linearGradient id="bg" x1="0" y1="0" x2="0" y2="1">
      <stop offset="0%" stop-color="#F8EDD8"/>
      <stop offset="100%" stop-color="#E8D4A8"/>
    </linearGradient>
    <filter id="aged">
      <feTurbulence type="fractalNoise" baseFrequency="0.65" numOctaves="3" result="noise"/>
      <feColorMatrix type="saturate" values="0" in="noise" result="grey"/>
      <feBlend in="SourceGraphic" in2="grey" mode="multiply" result="blend"/>
    </filter>
  </defs>
  <!-- bg -->
  <rect width="120" height="200" rx="8" fill="url(#bg)"/>
  <!-- border double -->
  <rect x="4" y="4" width="112" height="192" rx="6" fill="none" stroke="#C8A030" stroke-width="1.5"/>
  <rect x="7" y="7" width="106" height="186" rx="4" fill="none" stroke="#C8A030" stroke-width="0.6" opacity="0.6"/>
  <text x="60" y="28" text-anchor="middle" font-family="serif" font-size="9" font-weight="bold" fill="#888888" style="">VII</text>
  <text x="10" y="25" text-anchor="start" font-family="serif" font-size="8" font-weight="normal" fill="#888888" style="">⚔</text>
  <text x="110" y="25" text-anchor="end" font-family="serif" font-size="8" font-weight="normal" fill="#888888" style="">⚔</text>
  <line x1="35" y1="31" x2="35" y2="45" stroke="#888888" stroke-width="1.5"/>
  <line x1="31.5" y1="35.9" x2="38.5" y2="35.9" stroke="#888888" stroke-width="1.2"/>
  <circle cx="35" cy="31" r="1.5" fill="#C8A030"/>
  <line x1="85" y1="31" x2="85" y2="45" stroke="#888888" stroke-width="1.5"/>
  <line x1="81.5" y1="35.9" x2="88.5" y2="35.9" stroke="#888888" stroke-width="1.2"/>
  <circle cx="85" cy="31" r="1.5" fill="#C8A030"/>
  <line x1="60" y1="58" x2="60" y2="72" stroke="#888888" stroke-width="1.5"/>
  <line x1="56.5" y1="62.9" x2="63.5" y2="62.9" stroke="#888888" stroke-width="1.2"/>
  <circle cx="60" cy="58" r="1.5" fill="#C8A030"/>
  <line x1="35" y1="85" x2="35" y2="99" stroke="#888888" stroke-width="1.5"/>
  <line x1="31.5" y1="89.9" x2="38.5" y2="89.9" stroke="#888888" stroke-width="1.2"/>
  <circle cx="35" cy="85" r="1.5" fill="#C8A030"/>
  <line x1="85" y1="85" x2="85" y2="99" stroke="#888888" stroke-width="1.5"/>
  <line x1="81.5" y1="89.9" x2="88.5" y2="89.9" stroke="#888888" stroke-width="1.2"/>
  <circle cx="85" cy="85" r="1.5" fill="#C8A030"/>
  <line x1="35" y1="138" x2="35" y2="152" stroke="#888888" stroke-width="1.5"/>
  <line x1="31.5" y1="142.9" x2="38.5" y2="142.9" stroke="#888888" stroke-width="1.2"/>
  <circle cx="35" cy="138" r="1.5" fill="#C8A030"/>
  <line x1="85" y1="138" x2="85" y2="152" stroke="#888888" stroke-width="1.5"/>
  <line x1="81.5" y1="142.9" x2="88.5" y2="142.9" stroke="#888888" stroke-width="1.2"/>
  <circle cx="85" cy="138" r="1.5" fill="#C8A030"/>
  <text x="60" y="186" text-anchor="middle" font-family="serif" font-size="6.5" font-weight="normal" fill="#2A1A08" style="">SEVEN OF SWORDS</text>

</svg>