<svg xmlns="http://www.w3.org/2000/svg" viewBox="0 0 120 200" width="120" height="200">
  <defs>
    <linearGradient id="bg" x1="0" y1="0" x2="0" y2="1">
      <stop offset="0%" stop-color="#F8EDD8"/>
      <stop offset="100%" stop-color="#E8D4A8"/>
    </linearGradient>
    <filter id="aged">
      <feTurbulence type="fractalNoise" baseFrequency="0.65" numOctaves="3" result="noise"/>
      <feColorMatrix type="saturate" values="0" in="noise" result="grey"/>
      <feBlend in="SourceGraphic" in2="grey" mode="multiply" result="blend"/>
    </filter>
  </defs>
  <!-- bg -->
  <rect width="120" height="200" rx="8" fill="url(#bg)"/>
  <!-- border double -->
  <rect x="4" y="4" width="112" height="192" rx="6" fill="none" stroke="#C8A030" stroke-width="1.5"/>
  <rect x="7" y="7" width="106" height="186" rx="4" fill="none" stroke="#C8A030" stroke-width="0.6" opacity="0.6"/>
  <text x="60" y="28" text-anchor="middle" font-family="serif" font-size="9" font-weight="bold" fill="#1A3A6A" style="">VI</text>
  <text x="10" y="25" text-anchor="start" font-family="serif" font-size="8" font-weight="normal" fill="#1A3A6A" style="">🜄</text>
  <text x="110" y="25" text-anchor="end" font-family="serif" font-size="8" font-weight="normal" fill="#1A3A6A" style="">🜄</text>
  <path d="M28,38 Q28,45 35,52 Q42,45 42,38 Z" fill="#1A3A6A" stroke="#2A1A08" stroke-width="0.6"/>
  <line x1="30.8" y1="52" x2="39.2" y2="52" stroke="#2A1A08" stroke-width="0.8"/>
  <line x1="35" y1="52" x2="35" y2="55" stroke="#2A1A08" stroke-width="0.8"/>
  <line x1="29.4" y1="55" x2="40.6" y2="55" stroke="#2A1A08" stroke-width="0.8"/>
  <path d="M78,38 Q78,45 85,52 Q92,45 92,38 Z" fill="#1A3A6A" stroke="#2A1A08" stroke-width="0.6"/>
  <line x1="80.8" y1="52" x2="89.2" y2="52" stroke="#2A1A08" stroke-width="0.8"/>
  <line x1="85" y1="52" x2="85" y2="55" stroke="#2A1A08" stroke-width="0.8"/>
  <line x1="79.4" y1="55" x2="90.6" y2="55" stroke="#2A1A08" stroke-width="0.8"/>
  <path d="M28,85 Q28,92 35,99 Q42,92 42,85 Z" fill="#1A3A6A" stroke="#2A1A08" stroke-width="0.6"/>
  <line x1="30.8" y1="99" x2="39.2" y2="99" stroke="#2A1A08" stroke-width="0.8"/>
  <line x1="35" y1="99" x2="35" y2="102" stroke="#2A1A08" stroke-width="0.8"/>
  <line x1="29.4" y1="102" x2="40.6" y2="102" stroke="#2A1A08" stroke-width="0.8"/>
  <path d="M78,85 Q78,92 85,99 Q92,92 92,85 Z" fill="#1A3A6A" stroke="#2A1A08" stroke-width="0.6"/>
  <line x1="80.8" y1="99" x2="89.2" y2="99" stroke="#2A1A08" stroke-width="0.8"/>
  <line x1="85" y1="99" x2="85" y2="102" stroke="#2A1A08" stroke-width="0.8"/>
  <line x1="79.4" y1="102" x2="90.6" y2="102" stroke="#2A1A08" stroke-width="0.8"/>
  <path d="M28,133 Q28,140 35,147 Q42,140 42,133 Z" fill="#1A3A6A" stroke="#2A1A08" stroke-width="0.6"/>
  <line x1="30.8" y1="147" x2="39.2" y2="147" stroke="#2A1A08" stroke-width="0.8"/>
  <line x1="35" y1="147" x2="35" y2="150" stroke="#2A1A08" stroke-width="0.8"/>
  <line x1="29.4" y1="150" x2="40.6" y2="150" stroke="#2A1A08" stroke-width="0.8"/>
  <path d="M78,133 Q78,140 85,147 Q92,140 92,133 Z" fill="#1A3A6A" stroke="#2A1A08" stroke-width="0.6"/>
  <line x1="80.8" y1="147" x2="89.2" y2="147" stroke="#2A1A08" stroke-width="0.8"/>
  <line x1="85" y1="147" x2="85" y2="150" stroke="#2A1A08" stroke-width="0.8"/>
  <line x1="79.4" y1="150" x2="90.6" y2="150" stroke="#2A1A08" stroke-width="0.8"/>
  <text x="60" y="186" text-anchor="middle" font-family="serif" font-size="6.5" font-weight="normal" fill="#2A1A08" style="">SIX OF CUPS</text>

</svg>