<svg xmlns="http://www.w3.org/2000/svg" viewBox="0 0 120 200" width="120" height="200">
  <defs>
    <linearGradient id="bg" x1="0" y1="0" x2="0" y2="1">
      <stop offset="0%" stop-color="#F8EDD8"/>
      <stop offset="100%" stop-color="#E8D4A8"/>
    </linearGradient>
    <filter id="aged">
      <feTurbulence type="fractalNoise" baseFrequency="0.65" numOctaves="3" result="noise"/>
      <feColorMatrix type="saturate" values="0" in="noise" result="grey"/>
      <feBlend in="SourceGraphic" in2="grey" mode="multiply" result="blend"/>
    </filter>
  </defs>
  <!-- bg -->
  <rect width="120" height="200" rx="8" fill="url(#bg)"/>
  <!-- border double -->
  <rect x="4" y="4" width="112" height="192" rx="6" fill="none" stroke="#C8A030" stroke-width="1.5"/>
  <rect x="7" y="7" width="106" height="186" rx="4" fill="none" stroke="#C8A030" stroke-width="0.6" opacity="0.6"/>
  <text x="60" y="28" text-anchor="middle" font-family="serif" font-size="9" font-weight="bold" fill="#C8A030" style="">XV</text>
  <text x="10" y="25" text-anchor="start" font-family="serif" font-size="8" font-weight="normal" fill="#C8A030" style="">✦</text>
  <text x="110" y="25" text-anchor="end" font-family="serif" font-size="8" font-weight="normal" fill="#C8A030" style="">✦</text>
  <rect x="0" y="15" width="120" height="180" rx="0" fill="#1A0808" stroke="none" stroke-width="1"/>
  <circle cx="60" cy="60" r="12" fill="#C09050" stroke="#2A1A08" stroke-width="1"/>
  <path d="M48,58 L52,52 M72,58 L68,52" fill="none" stroke="#2A1A08" stroke-width="1.5"/>
  <path d="M48,60 L44,56 M72,60 L76,56" fill="none" stroke="#2A1A08" stroke-width="1"/>
  <path d="M60,72 L60,100 M48,82 L72,82" fill="none" stroke="#2A1A08" stroke-width="2"/>
  <path d="M60,38 L68,55 L50,44 L70,44 L52,55 Z" fill="#2A1A08" stroke="#8B1A1A" stroke-width="1"/>
  <line x1="72" y1="82" x2="85" y2="60" stroke="#8B1A1A" stroke-width="2"/>
  <circle cx="85" cy="58" r="3" fill="#8B1A1A" stroke="#C8A030" stroke-width="1"/>
  <rect x="35" y="110" width="50" height="20" rx="2" fill="#2A1A08" stroke="#888888" stroke-width="0.8"/>
  <circle cx="40" cy="142" r="6" fill="#C09050" stroke="#2A1A08" stroke-width="0.7"/>
  <path d="M40,148 L40,165" fill="none" stroke="#8B1A1A" stroke-width="1.2"/>
  <path d="M42,143 Q60,136 78,143" fill="none" stroke="#888888" stroke-width="1"/>
  <circle cx="80" cy="142" r="6" fill="#C09050" stroke="#2A1A08" stroke-width="0.7"/>
  <path d="M80,148 L80,165" fill="none" stroke="#8B1A1A" stroke-width="1.2"/>
  <path d="M37,139 L39,134 M43,139 L41,134" fill="none" stroke="#8B1A1A" stroke-width="0.8"/>
  <path d="M77,139 L79,134 M83,139 L81,134" fill="none" stroke="#8B1A1A" stroke-width="0.8"/>
  <path d="M40,165 Q35,172 38,178" fill="none" stroke="#8B1A1A" stroke-width="1.5"/>
  <path d="M80,165 Q85,172 82,178" fill="none" stroke="#8B1A1A" stroke-width="1.5"/>
  <text x="60" y="186" text-anchor="middle" font-family="serif" font-size="6.5" font-weight="normal" fill="#2A1A08" style="">THE DEVIL</text>

</svg>