<svg xmlns="http://www.w3.org/2000/svg" viewBox="0 0 120 200" width="120" height="200">
  <defs>
    <linearGradient id="bg" x1="0" y1="0" x2="0" y2="1">
      <stop offset="0%" stop-color="#F8EDD8"/>
      <stop offset="100%" stop-color="#E8D4A8"/>
    </linearGradient>
    <filter id="aged">
      <feTurbulence type="fractalNoise" baseFrequency="0.65" numOctaves="3" result="noise"/>
      <feColorMatrix type="saturate" values="0" in="noise" result="grey"/>
      <feBlend in="SourceGraphic" in2="grey" mode="multiply" result="blend"/>
    </filter>
  </defs>
  <!-- bg -->
  <rect width="120" height="200" rx="8" fill="url(#bg)"/>
  <!-- border double -->
  <rect x="4" y="4" width="112" height="192" rx="6" fill="none" stroke="#C8A030" stroke-width="1.5"/>
  <rect x="7" y="7" width="106" height="186" rx="4" fill="none" stroke="#C8A030" stroke-width="0.6" opacity="0.6"/>
  <text x="60" y="28" text-anchor="middle" font-family="serif" font-size="9" font-weight="bold" fill="#C8A030" style="">XIV</text>
  <text x="10" y="25" text-anchor="start" font-family="serif" font-size="8" font-weight="normal" fill="#C8A030" style="">✦</text>
  <text x="110" y="25" text-anchor="end" font-family="serif" font-size="8" font-weight="normal" fill="#C8A030" style="">✦</text>
  <rect x="0" y="15" width="120" height="120" rx="0" fill="#A0C8F0" stroke="none" stroke-width="1"/>
  <rect x="0" y="120" width="120" height="80" rx="0" fill="#1A5A1A" stroke="none" stroke-width="1"/>
  <path d="M20,145 Q60,160 100,145 L100,180 Q60,180 20,180 Z" fill="#1A3A6A" stroke="none" stroke-width="1"/>
  <circle cx="60" cy="75" r="9" fill="#FFD0A0" stroke="#2A1A08" stroke-width="0.8"/>
  <path d="M60,84 L60,120 M50,96 L70,96" fill="none" stroke="#FEFAF0" stroke-width="1.5"/>
  <path d="M50,88 Q35,78 32,95 Q42,98 50,92" fill="#E8F0E8" stroke="#888888" stroke-width="0.6"/>
  <path d="M70,88 Q85,78 88,95 Q78,98 70,92" fill="#E8F0E8" stroke="#888888" stroke-width="0.6"/>
  <path d="M38,99 Q38,105 44,111 Q50,105 50,99 Z" fill="#1A3A6A" stroke="#2A1A08" stroke-width="0.6"/>
  <line x1="40.4" y1="111" x2="47.6" y2="111" stroke="#2A1A08" stroke-width="0.8"/>
  <line x1="44" y1="111" x2="44" y2="114" stroke="#2A1A08" stroke-width="0.8"/>
  <line x1="39.2" y1="114" x2="48.8" y2="114" stroke="#2A1A08" stroke-width="0.8"/>
  <path d="M68,109 Q68,115 74,121 Q80,115 80,109 Z" fill="#1A3A6A" stroke="#2A1A08" stroke-width="0.6"/>
  <line x1="70.4" y1="121" x2="77.6" y2="121" stroke="#2A1A08" stroke-width="0.8"/>
  <line x1="74" y1="121" x2="74" y2="124" stroke="#2A1A08" stroke-width="0.8"/>
  <line x1="69.2" y1="124" x2="78.8" y2="124" stroke="#2A1A08" stroke-width="0.8"/>
  <path d="M50,108 Q62,112 68,118" fill="none" stroke="#1A3A6A" stroke-width="1.5"/>
  <path d="M55,90 L65,90 L60,98 Z" fill="#8B1A1A" stroke="#2A1A08" stroke-width="0.5"/>
  <path d="M15,145 Q20,135 25,145" fill="#8040C0" stroke="none" stroke-width="1"/>
  <path d="M90,145 Q95,135 100,145" fill="#8040C0" stroke="none" stroke-width="1"/>
  <path d="M80,120 L95,95 L110,120 Z" fill="#888888" stroke="#2A1A08" stroke-width="0.5"/>
  <circle cx="95" cy="90" r="5" fill="#C8A030" stroke="#C8A030" stroke-width="1"/>
<line x1="95" y1="90" x2="103.0" y2="90.0" stroke="#C8A030" stroke-width="0.8"/><line x1="95" y1="90" x2="100.7" y2="95.7" stroke="#C8A030" stroke-width="0.8"/><line x1="95" y1="90" x2="95.0" y2="98.0" stroke="#C8A030" stroke-width="0.8"/><line x1="95" y1="90" x2="89.3" y2="95.7" stroke="#C8A030" stroke-width="0.8"/><line x1="95" y1="90" x2="87.0" y2="90.0" stroke="#C8A030" stroke-width="0.8"/><line x1="95" y1="90" x2="89.3" y2="84.3" stroke="#C8A030" stroke-width="0.8"/><line x1="95" y1="90" x2="95.0" y2="82.0" stroke="#C8A030" stroke-width="0.8"/><line x1="95" y1="90" x2="100.7" y2="84.3" stroke="#C8A030" stroke-width="0.8"/>  <text x="60" y="186" text-anchor="middle" font-family="serif" font-size="6.5" font-weight="normal" fill="#2A1A08" style="">TEMPERANCE</text>

</svg>