<svg xmlns="http://www.w3.org/2000/svg" viewBox="0 0 120 200" width="120" height="200">
  <defs>
    <linearGradient id="bg" x1="0" y1="0" x2="0" y2="1">
      <stop offset="0%" stop-color="#F8EDD8"/>
      <stop offset="100%" stop-color="#E8D4A8"/>
    </linearGradient>
    <filter id="aged">
      <feTurbulence type="fractalNoise" baseFrequency="0.65" numOctaves="3" result="noise"/>
      <feColorMatrix type="saturate" values="0" in="noise" result="grey"/>
      <feBlend in="SourceGraphic" in2="grey" mode="multiply" result="blend"/>
    </filter>
  </defs>
  <!-- bg -->
  <rect width="120" height="200" rx="8" fill="url(#bg)"/>
  <!-- border double -->
  <rect x="4" y="4" width="112" height="192" rx="6" fill="none" stroke="#C8A030" stroke-width="1.5"/>
  <rect x="7" y="7" width="106" height="186" rx="4" fill="none" stroke="#C8A030" stroke-width="0.6" opacity="0.6"/>
  <text x="60" y="28" text-anchor="middle" font-family="serif" font-size="9" font-weight="bold" fill="#C8A030" style="">XVI</text>
  <text x="10" y="25" text-anchor="start" font-family="serif" font-size="8" font-weight="normal" fill="#C8A030" style="">✦</text>
  <text x="110" y="25" text-anchor="end" font-family="serif" font-size="8" font-weight="normal" fill="#C8A030" style="">✦</text>
  <rect x="0" y="15" width="120" height="185" rx="0" fill="#1A1A2A" stroke="none" stroke-width="1"/>
  <rect x="35" y="60" width="50" height="120" rx="0" fill="#888888" stroke="#2A1A08" stroke-width="1"/>
  <rect x="35" y="52" width="8" height="12" rx="0" fill="#888888" stroke="#2A1A08" stroke-width="0.8"/>
  <rect x="45" y="52" width="8" height="12" rx="0" fill="#888888" stroke="#2A1A08" stroke-width="0.8"/>
  <rect x="55" y="52" width="8" height="12" rx="0" fill="#888888" stroke="#2A1A08" stroke-width="0.8"/>
  <rect x="65" y="52" width="8" height="12" rx="0" fill="#888888" stroke="#2A1A08" stroke-width="0.8"/>
  <rect x="75" y="52" width="8" height="12" rx="0" fill="#888888" stroke="#2A1A08" stroke-width="0.8"/>
  <path d="M48,50 L52,42 L60,48 L68,42 L72,50 Z" fill="#C8A030" stroke="#2A1A08" stroke-width="0.8"/>
  <path d="M55,40 L65,30 L70,35" fill="none" stroke="#C8A030" stroke-width="1.5"/>
  <path d="M90,20 L72,65 L82,65 L60,115" fill="#C8A030" stroke="#C8A030" stroke-width="2"/>
  <path d="M50,80 Q53,72 56,80" fill="#8B1A1A" stroke="none" stroke-width="1"/>
  <path d="M64,80 Q67,72 70,80" fill="#8B1A1A" stroke="none" stroke-width="1"/>
  <path d="M50,100 Q53,92 56,100" fill="#8B1A1A" stroke="none" stroke-width="1"/>
  <circle cx="25" cy="110" r="5" fill="#FFD0A0" stroke="#2A1A08" stroke-width="0.7"/>
  <path d="M25,115 L22,130 M25,115 L28,130 M22,122 L28,122" fill="none" stroke="#8B1A1A" stroke-width="1.2"/>
  <circle cx="95" cy="120" r="5" fill="#FFD0A0" stroke="#2A1A08" stroke-width="0.7"/>
  <path d="M95,125 L92,140 M95,125 L98,140 M92,132 L98,132" fill="none" stroke="#1A3A6A" stroke-width="1.2"/>
<circle cx="30" cy="80" r="1.5" fill="#C8A030"/><circle cx="40" cy="95" r="1.5" fill="#C8A030"/><circle cx="50" cy="110" r="1.5" fill="#C8A030"/><circle cx="60" cy="80" r="1.5" fill="#C8A030"/><circle cx="70" cy="95" r="1.5" fill="#C8A030"/><circle cx="80" cy="110" r="1.5" fill="#C8A030"/><circle cx="90" cy="80" r="1.5" fill="#C8A030"/><circle cx="100" cy="95" r="1.5" fill="#C8A030"/>  <path d="M0,30 Q20,20 40,30 Q20,40 0,30" fill="#404050" stroke="none" stroke-width="1"/>
  <path d="M80,25 Q100,15 120,25 Q100,35 80,25" fill="#404050" stroke="none" stroke-width="1"/>
  <text x="60" y="186" text-anchor="middle" font-family="serif" font-size="6.5" font-weight="normal" fill="#2A1A08" style="">THE TOWER</text>

</svg>