<svg xmlns="http://www.w3.org/2000/svg" viewBox="0 0 120 200" width="120" height="200">
  <defs>
    <linearGradient id="bg" x1="0" y1="0" x2="0" y2="1">
      <stop offset="0%" stop-color="#F8EDD8"/>
      <stop offset="100%" stop-color="#E8D4A8"/>
    </linearGradient>
    <filter id="aged">
      <feTurbulence type="fractalNoise" baseFrequency="0.65" numOctaves="3" result="noise"/>
      <feColorMatrix type="saturate" values="0" in="noise" result="grey"/>
      <feBlend in="SourceGraphic" in2="grey" mode="multiply" result="blend"/>
    </filter>
  </defs>
  <!-- bg -->
  <rect width="120" height="200" rx="8" fill="url(#bg)"/>
  <!-- border double -->
  <rect x="4" y="4" width="112" height="192" rx="6" fill="none" stroke="#C8A030" stroke-width="1.5"/>
  <rect x="7" y="7" width="106" height="186" rx="4" fill="none" stroke="#C8A030" stroke-width="0.6" opacity="0.6"/>
  <text x="60" y="28" text-anchor="middle" font-family="serif" font-size="9" font-weight="bold" fill="#C8A030" style="">XVIII</text>
  <text x="10" y="25" text-anchor="start" font-family="serif" font-size="8" font-weight="normal" fill="#C8A030" style="">✦</text>
  <text x="110" y="25" text-anchor="end" font-family="serif" font-size="8" font-weight="normal" fill="#C8A030" style="">✦</text>
  <rect x="0" y="15" width="120" height="185" rx="0" fill="#1A1A3A" stroke="none" stroke-width="1"/>
  <circle cx="60" cy="50" r="22" fill="#E8E8C0" stroke="#C8A030" stroke-width="1.5"/>
  <circle cx="54" cy="46" r="3" fill="#2A1A08" stroke="#C8A030" stroke-width="1"/>
  <circle cx="66" cy="46" r="3" fill="#2A1A08" stroke="#C8A030" stroke-width="1"/>
  <path d="M54,56 Q60,62 66,56" fill="none" stroke="#2A1A08" stroke-width="1.2"/>
<circle cx="38" cy="72" r="1.2" fill="#C8A030"/><circle cx="44" cy="76" r="1.2" fill="#C8A030"/><circle cx="50" cy="80" r="1.2" fill="#C8A030"/><circle cx="56" cy="72" r="1.2" fill="#C8A030"/><circle cx="62" cy="76" r="1.2" fill="#C8A030"/><circle cx="68" cy="80" r="1.2" fill="#C8A030"/><circle cx="74" cy="72" r="1.2" fill="#C8A030"/><circle cx="80" cy="76" r="1.2" fill="#C8A030"/>  <rect x="10" y="110" width="22" height="70" rx="0" fill="#888888" stroke="#2A1A08" stroke-width="0.8"/>
  <rect x="88" y="110" width="22" height="70" rx="0" fill="#888888" stroke="#2A1A08" stroke-width="0.8"/>
  <rect x="10" y="104" width="5" height="10" rx="0" fill="#888888" stroke="#2A1A08" stroke-width="0.5"/>
  <rect x="16" y="104" width="5" height="10" rx="0" fill="#888888" stroke="#2A1A08" stroke-width="0.5"/>
  <rect x="22" y="104" width="5" height="10" rx="0" fill="#888888" stroke="#2A1A08" stroke-width="0.5"/>
  <rect x="88" y="104" width="5" height="10" rx="0" fill="#888888" stroke="#2A1A08" stroke-width="0.5"/>
  <rect x="94" y="104" width="5" height="10" rx="0" fill="#888888" stroke="#2A1A08" stroke-width="0.5"/>
  <rect x="100" y="104" width="5" height="10" rx="0" fill="#888888" stroke="#2A1A08" stroke-width="0.5"/>
  <path d="M50,178 Q55,155 52,140 Q49,125 55,110 Q60,100 65,110 Q71,125 68,140 Q65,155 70,178" fill="none" stroke="#C8A030" stroke-width="1"/>
  <circle cx="28" cy="135" r="6" fill="#888" stroke="#2A1A08" stroke-width="0.7"/>
  <path d="M22,133 L26,127 L30,133" fill="none" stroke="#888" stroke-width="1"/>
  <path d="M28,141 L28,165 M22,150 L34,150" fill="none" stroke="#888" stroke-width="1.2"/>
  <circle cx="92" cy="135" r="6" fill="#C0A060" stroke="#2A1A08" stroke-width="0.7"/>
  <path d="M86,133 L90,127 L94,133" fill="none" stroke="#C0A060" stroke-width="1"/>
  <path d="M92,141 L92,165 M86,150 L98,150" fill="none" stroke="#C0A060" stroke-width="1.2"/>
  <path d="M50,175 Q60,168 70,175" fill="none" stroke="#8B1A1A" stroke-width="2"/>
  <circle cx="60" cy="173" r="4" fill="#8B1A1A" stroke="#2A1A08" stroke-width="0.5"/>
<line x1="55" y1="175" x2="52" y2="180" stroke="#8B1A1A" stroke-width="0.8"/><line x1="57" y1="175" x2="54" y2="180" stroke="#8B1A1A" stroke-width="0.8"/><line x1="59" y1="175" x2="56" y2="180" stroke="#8B1A1A" stroke-width="0.8"/><line x1="61" y1="175" x2="58" y2="180" stroke="#8B1A1A" stroke-width="0.8"/><line x1="63" y1="175" x2="60" y2="180" stroke="#8B1A1A" stroke-width="0.8"/><line x1="65" y1="175" x2="62" y2="180" stroke="#8B1A1A" stroke-width="0.8"/>  <path d="M10,168 Q60,178 110,168 L110,185 Q60,185 10,185 Z" fill="#1A3050" stroke="none" stroke-width="1"/>
  <text x="60" y="186" text-anchor="middle" font-family="serif" font-size="6.5" font-weight="normal" fill="#2A1A08" style="">THE MOON</text>

</svg>