<svg xmlns="http://www.w3.org/2000/svg" viewBox="0 0 120 200" width="120" height="200">
  <defs>
    <linearGradient id="bg" x1="0" y1="0" x2="0" y2="1">
      <stop offset="0%" stop-color="#F8EDD8"/>
      <stop offset="100%" stop-color="#E8D4A8"/>
    </linearGradient>
    <filter id="aged">
      <feTurbulence type="fractalNoise" baseFrequency="0.65" numOctaves="3" result="noise"/>
      <feColorMatrix type="saturate" values="0" in="noise" result="grey"/>
      <feBlend in="SourceGraphic" in2="grey" mode="multiply" result="blend"/>
    </filter>
  </defs>
  <!-- bg -->
  <rect width="120" height="200" rx="8" fill="url(#bg)"/>
  <!-- border double -->
  <rect x="4" y="4" width="112" height="192" rx="6" fill="none" stroke="#C8A030" stroke-width="1.5"/>
  <rect x="7" y="7" width="106" height="186" rx="4" fill="none" stroke="#C8A030" stroke-width="0.6" opacity="0.6"/>
  <text x="60" y="28" text-anchor="middle" font-family="serif" font-size="9" font-weight="bold" fill="#C8A030" style="">XII</text>
  <text x="10" y="25" text-anchor="start" font-family="serif" font-size="8" font-weight="normal" fill="#C8A030" style="">✦</text>
  <text x="110" y="25" text-anchor="end" font-family="serif" font-size="8" font-weight="normal" fill="#C8A030" style="">✦</text>
  <line x1="40" y1="30" x2="40" y2="165" stroke="#2A1A08" stroke-width="3"/>
  <line x1="80" y1="30" x2="80" y2="165" stroke="#2A1A08" stroke-width="3"/>
  <line x1="40" y1="70" x2="80" y2="70" stroke="#2A1A08" stroke-width="3"/>
<circle cx="35" cy="35" r="4" fill="#1A5A1A"/><circle cx="40" cy="35" r="4" fill="#1A5A1A"/><circle cx="45" cy="35" r="4" fill="#1A5A1A"/><circle cx="75" cy="35" r="4" fill="#1A5A1A"/><circle cx="80" cy="35" r="4" fill="#1A5A1A"/><circle cx="85" cy="35" r="4" fill="#1A5A1A"/>  <circle cx="60" cy="145" r="8" fill="#FFD0A0" stroke="#2A1A08" stroke-width="0.8"/>
  <circle cx="60" cy="145" r="12" fill="none" stroke="#C8A030" stroke-width="1.5"/>
  <path d="M60,137 L60,108 M52,120 L68,120" fill="none" stroke="#1A3A6A" stroke-width="1.5"/>
  <line x1="60" y1="108" x2="60" y2="73" stroke="#2A1A08" stroke-width="1.5"/>
  <path d="M60,108 L70,118 L68,128" fill="none" stroke="#8B1A1A" stroke-width="1.5"/>
  <path d="M52,120 L46,128 M68,120 L74,128" fill="none" stroke="#1A3A6A" stroke-width="1.2"/>
  <text x="60" y="186" text-anchor="middle" font-family="serif" font-size="6.5" font-weight="normal" fill="#2A1A08" style="">THE HANGED MAN</text>

</svg>